<svg xmlns="http://www.w3.org/2000/svg" xmlns:xlink="http://www.w3.org/1999/xlink" viewBox="0 0 653.58 241.79"><defs><linearGradient id="a" x1="410.86" y1="13.41" x2="420.33" y2="22.65" gradientUnits="userSpaceOnUse"><stop offset="0.05" stop-color="#281841" stop-opacity="0"/><stop offset="0.68" stop-color="#fff"/><stop offset="0.79" stop-color="#fefdfe" stop-opacity="0.99"/><stop offset="0.83" stop-color="#f9f8fa" stop-opacity="0.97"/><stop offset="0.86" stop-color="#f2eef4" stop-opacity="0.92"/><stop offset="0.88" stop-color="#e7e0eb" stop-opacity="0.85"/><stop offset="0.9" stop-color="#d8cee0" stop-opacity="0.77"/><stop offset="0.91" stop-color="#c7b7d2" stop-opacity="0.66"/><stop offset="0.93" stop-color="#b19cc1" stop-opacity="0.53"/><stop offset="0.94" stop-color="#997dad" stop-opacity="0.39"/><stop offset="0.96" stop-color="#7d5a97" stop-opacity="0.22"/><stop offset="0.97" stop-color="#5f347f" stop-opacity="0.04"/><stop offset="0.97" stop-color="#592c7a" stop-opacity="0"/></linearGradient><linearGradient id="b" x1="381.47" y1="37.71" x2="410.54" y2="66.1" xlink:href="#a"/><linearGradient id="c" x1="435.15" y1="9.17" x2="455.29" y2="28.84" xlink:href="#a"/><linearGradient id="d" x1="458.82" y1="34.65" x2="475.42" y2="50.86" xlink:href="#a"/><linearGradient id="e" x1="501.25" y1="0.06" x2="516.14" y2="14.61" xlink:href="#a"/><linearGradient id="f" x1="34.12" y1="50.61" x2="48.79" y2="64.94" xlink:href="#a"/><linearGradient id="g" x1="68.91" y1="18.48" x2="84.23" y2="33.44" xlink:href="#a"/><linearGradient id="h" x1="101.65" y1="0.35" x2="111.6" y2="10.07" xlink:href="#a"/><linearGradient id="i" x1="149.33" y1="-16.63" x2="139.38" y2="63.13" gradientTransform="translate(499.91 296.72) rotate(-45)" gradientUnits="userSpaceOnUse"><stop offset="0" stop-color="#281841"/><stop offset="0.39" stop-color="#592c7a"/><stop offset="0.8" stop-color="#5a328d"/></linearGradient><linearGradient id="j" x1="-143.35" y1="122.91" x2="-17.32" y2="255.87" gradientTransform="translate(110.34 -0.84) rotate(-12.98)" gradientUnits="userSpaceOnUse"><stop offset="0" stop-color="#281841"/><stop offset="0.54" stop-color="#592c7a"/></linearGradient><linearGradient id="k" x1="-105.91" y1="162.26" x2="-82.65" y2="189.47" gradientTransform="translate(110.34 -0.84) rotate(-12.98)" gradientUnits="userSpaceOnUse"><stop offset="0" stop-color="#760e57"/><stop offset="0.38" stop-color="#e72fb7"/></linearGradient></defs><g style="isolation:isolate"><path d="M93,15.22V25.81H87.06l-.3.5V66.6l.3.5H93V77.69H64.37V67.1h5.89l.3-.5V51.4H47.37V66.6l.3.5h5.9V77.69H25V67.1h5.9l.3-.5V26.31l-.3-.5H25V15.22H53.57V25.81h-5.9l-.3.5v14.5H70.56V26.31l-.3-.5H64V15.22H93m0-6H64a6,6,0,0,0-5.2,3,6,6,0,0,0-5.2-3H25a6,6,0,0,0-6,6V25.81a6,6,0,0,0,6,6h.2V61.1H25a6,6,0,0,0-6,6V77.69a6,6,0,0,0,6,6H53.57A6,6,0,0,0,59,80.32a6,6,0,0,0,5.4,3.37H93a6,6,0,0,0,6-6V67.1a6,6,0,0,0-6-6h-.19V31.81H93a6,6,0,0,0,6-6V15.22a6,6,0,0,0-6-6ZM53.37,31.81h.2a6,6,0,0,0,5.2-3,6,6,0,0,0,5.2,3h.59v3H53.37v-3Zm0,25.59H64.56v3.7h-.19A6,6,0,0,0,59,64.47a6,6,0,0,0-5.4-3.37h-.2V57.4Z" style="fill:#270944"/><path d="M128.14,15.22V25.81h-5.9l-.3.5V66.6l.3.5h5.9V77.69H99.55V67.1h5.9l.3-.5V26.31l-.3-.5h-5.9V15.22h28.59m0-6H99.55a6,6,0,0,0-6,6V25.81a6,6,0,0,0,6,6h.2V61.1h-.2a6,6,0,0,0-6,6V77.69a6,6,0,0,0,6,6h28.59a6,6,0,0,0,6-6V67.1a6,6,0,0,0-6-6h-.2V31.81h.2a6,6,0,0,0,6-6V15.22a6,6,0,0,0-6-6Z" style="fill:#270944"/><path d="M191.11,12.72V36.91H179.82l-2.7-9.3c-2.7-1.6-6.3-2.4-10.7-2.4-9.89,0-15.09,5.8-15.09,20.9,0,16.49,4.8,21.59,17.09,21.59a20.87,20.87,0,0,0,6.1-.8V55.7h-8V45.11h29.59V55.7h-6.7v8.5h6.1v9.59c-6.1,2.9-17.89,5.4-27.49,5.4-25.19,0-34-10.19-34-31.28,0-23.2,10.89-34.19,32.68-34.19a48.07,48.07,0,0,1,13.3,1.8l11.09-2.8m0-6a6,6,0,0,0-1.46.18l-9.58,2.42a54.67,54.67,0,0,0-13.35-1.6C141.41,7.72,128,21.62,128,47.91c0,25.43,12.7,37.28,40,37.28,10.14,0,22.78-2.51,30.07-6a6,6,0,0,0,3.42-5.42V64.2a6,6,0,0,0-1.48-4,6,6,0,0,0,2.08-4.55V45.11a6,6,0,0,0-5.42-6,6,6,0,0,0,.42-2.22V12.72a6,6,0,0,0-6-6ZM165,61.51c-3.16-.4-4.39-1.36-5.1-2.23-1.7-2.08-2.57-6.51-2.57-13.17,0-14.9,5.25-14.9,9.09-14.9a19.62,19.62,0,0,1,5.71.73l1.93,6.64c.05.18.11.36.17.53h-7.71a6,6,0,0,0-6,6V55.7A6,6,0,0,0,165,61.51Z" style="fill:#270944"/><path d="M270.88,15.22V25.81H265l-.3.5V66.6l.3.5h5.9V77.69H242.29V67.1h5.9l.3-.5V51.4H225.3V66.6l.3.5h5.9V77.69H202.91V67.1h5.89l.3-.5V26.31l-.3-.5h-5.89V15.22H231.5V25.81h-5.9l-.3.5v14.5h23.19V26.31l-.3-.5h-6.3V15.22h29m0-6h-29a6,6,0,0,0-5.2,3,6,6,0,0,0-5.19-3H202.91a6,6,0,0,0-6,6V25.81a6,6,0,0,0,6,6h.19V61.1h-.19a6,6,0,0,0-6,6V77.69a6,6,0,0,0,6,6H231.5a6,6,0,0,0,5.39-3.37,6,6,0,0,0,5.4,3.37h28.59a6,6,0,0,0,6-6V67.1a6,6,0,0,0-6-6h-.2V31.81h.2a6,6,0,0,0,6-6V15.22a6,6,0,0,0-6-6ZM231.3,31.81h.2a6,6,0,0,0,5.19-3,6,6,0,0,0,5.2,3h.6v3H231.3v-3Zm0,25.59h11.19v3.7h-.2a6,6,0,0,0-5.4,3.37,6,6,0,0,0-5.39-3.37h-.2V57.4Z" style="fill:#270944"/><path d="M353.24,12.82V35.51H341.65l-2-8.3a23.61,23.61,0,0,0-10.5-2.3c-7.89,0-11.69,1.9-11.69,6.3s2.4,6.4,13.89,8c17.9,2.5,24,7.5,24,19,0,14.1-9.69,21-27.29,21a86.37,86.37,0,0,1-24.89-3.6L301.77,56.8h12.09l2.3,9.7a43.22,43.22,0,0,0,11.09,1.4c8.2,0,11.6-2.2,11.6-7.6,0-4.6-2.9-6.6-14.49-8.4C306,49,301,43.51,301,32.61c0-14.39,12.19-18.89,26.68-18.89a60.35,60.35,0,0,1,16.4,2l9.19-2.9m0-6a5.88,5.88,0,0,0-1.8.28l-7.65,2.41a63.83,63.83,0,0,0-16.14-1.79c-9.1,0-16.46,1.65-21.87,4.91-7.07,4.25-10.81,11.16-10.81,20,0,4.8.71,11.8,6.85,17.17.4.35.82.69,1.27,1h-1.32a6,6,0,0,0-6,6.45L297.18,76a6,6,0,0,0,4.12,5.26,92.61,92.61,0,0,0,26.75,3.89c10.18,0,18.21-2.16,23.86-6.42,6.17-4.65,9.43-11.76,9.43-20.57,0-7.86-2.57-13.18-6.71-16.85a6,6,0,0,0,4.61-5.84V12.82a6,6,0,0,0-6-6ZM323.82,31.45a19.56,19.56,0,0,1,5.33-.54,19.78,19.78,0,0,1,5.39.73l.5,2.06c-1-.16-1.9-.3-2.86-.43-5.07-.71-7.35-1.39-8.36-1.82Zm-2.7,30-1-4.16c1.05.2,2.14.39,3.28.57,6.58,1,8.74,1.92,9.43,2.35v.12a3.87,3.87,0,0,1-.07.84c-.34.19-1.7.76-5.53.76a38.53,38.53,0,0,1-6.13-.48Z" style="fill:#270944"/><path d="M418.82,12.72V36.91h-11.3l-2.7-9.4c-2.7-1.6-6.4-2.3-10.79-2.3-9.9,0-15,5.8-15,20.9,0,16.49,4.1,21.59,16.4,21.59a19.52,19.52,0,0,0,10.79-3.2l2.6-9.2h11.3l-1.7,22.39-7.8-2c-4.7,2.3-10.7,3.5-17.79,3.5-21.19,0-31.09-10.19-31.09-31.28,0-23.2,10.79-34.19,32.59-34.19A51.09,51.09,0,0,1,408,15.52l10.8-2.8m1.3,42.58h0m-1.3-48.58a6,6,0,0,0-1.51.19L408,9.31a58.61,58.61,0,0,0-13.71-1.59c-25.25,0-38.59,13.9-38.59,40.19,0,12.33,3.05,21.41,9.33,27.77s15.58,9.51,27.76,9.51A48.48,48.48,0,0,0,411.15,82l5.78,1.49a6.26,6.26,0,0,0,1.49.18,6,6,0,0,0,6-5.54l1.68-22.21a4.49,4.49,0,0,0,0-.64,6,6,0,0,0-6-6h-11.3a6,6,0,0,0-5.77,4.37l-1.93,6.84a14.71,14.71,0,0,1-5.69,1.19c-6.31,0-7.53-1.59-8.05-2.27-1.56-2-2.35-6.51-2.35-13.32,0-14.9,5.2-14.9,9-14.9a21,21,0,0,1,5.8.67l1.92,6.69a6,6,0,0,0,5.77,4.34h11.3a6,6,0,0,0,6-6V12.72a6,6,0,0,0-6-6Z" style="fill:#270944"/><path d="M459.4,13.72c21.09,0,31,10.19,31,31.29,0,23.19-10.8,34.18-32.49,34.18-21.19,0-31.09-10.19-31.09-31.28,0-23.2,10.8-34.19,32.59-34.19m-.2,54c8.3,0,13.89-6.2,13.89-21.19,0-16.6-4.49-21.3-15.19-21.3-8.2,0-13.8,6.2-13.8,21.3,0,16.49,4.5,21.19,15.1,21.19m.2-60c-25.25,0-38.59,13.9-38.59,40.19,0,12.33,3.05,21.41,9.33,27.77s15.58,9.51,27.76,9.51c25.18,0,38.49-13.89,38.49-40.18,0-12.33-3.05-21.41-9.32-27.77S471.54,7.72,459.4,7.72Zm-.2,54c-5.48,0-9.1,0-9.1-15.19s5.87-15.3,7.8-15.3c5.54,0,9.19,0,9.19,15.3S461.15,61.7,459.2,61.7Z" style="fill:#270944"/><path d="M529.07,15.22c18,0,24.39,6.1,24.39,17.89,0,9.7-4.5,15.89-12.1,18.69l9.4,15.3h6V77.69H538.37L524.87,54h-6.2V66.6l.3.5h5.4V77.69H496.28V67.1h5.9l.3-.5V26.31l-.3-.5h-5.9V15.22h32.79m-10.4,28.29h8.1c6.7,0,9.8-3.3,9.8-9.7,0-5.3-3.5-8-10.3-8h-7.6v17.7m10.4-34.29H496.28a6,6,0,0,0-6,6V25.81a6,6,0,0,0,6,6h.2V61.1h-.2a6,6,0,0,0-6,6V77.69a6,6,0,0,0,6,6h28.09a6,6,0,0,0,6-6V75.78l2.78,4.88a6,6,0,0,0,5.22,3h18.39a6,6,0,0,0,6-6V67.1a6,6,0,0,0-6-6h-2.64l-4.32-7c6.28-4.57,9.66-11.8,9.66-21,0-8-2.61-14.09-7.76-18.1s-12.26-5.79-22.63-5.79Zm-4.4,22.59h1.6c2.9,0,3.86.63,4,.76s.28.93.28,1.24c0,1.75-.34,2.71-.65,3s-1.32.68-3.15.68h-2.1v-5.7Z" style="fill:#270944"/><path d="M621.33,15.22V38.51H609.74l-3.1-12.7H584.55V41h8.39l1.1-6.4h10l-1.7,22.79h-10.1V51.2h-7.69V67.1h21.29l4.6-12.6h12.19l-2.2,23.19H562.16V67.1h5.89l.3-.5V26.31l-.3-.5h-5.89V15.22h59.17M604,34.61h0M621.33,9.22H562.16a6,6,0,0,0-6,6V25.81a6,6,0,0,0,6,6h.19V61.1h-.19a6,6,0,0,0-6,6V77.69a6,6,0,0,0,6,6h58.27a6,6,0,0,0,6-5.43l2.19-23.19a6,6,0,0,0-6-6.57H610.44a6.15,6.15,0,0,0-1.43.17l.31-4.18.42,0h11.59a6,6,0,0,0,6-6V15.22a6,6,0,0,0-6-6Z" style="fill:#270944"/><g style="opacity:0.8"><path d="M64.37,75.09V64.49h5.89l.3-.5V48.8H47.37V64l.3.5h5.9v10.6H25V64.49h5.9l.3-.5V23.71l-.3-.5H25V12.61H53.57v10.6h-5.9l-.3.5V38.2H70.56V23.71l-.3-.5H64V12.61H93v10.6H87.06l-.3.5V64l.3.5H93v10.6Z" style="fill:#f0ad60"/><path d="M99.55,75.09V64.49h5.9l.3-.5V23.71l-.3-.5h-5.9V12.61h28.59v10.6h-5.9l-.3.5V64l.3.5h5.9v10.6Z" style="fill:#f0ad60"/><path d="M195.51,71.19c-6.1,2.9-17.89,5.4-27.49,5.4-25.19,0-34-10.2-34-31.29,0-23.19,10.89-34.18,32.68-34.18A48.09,48.09,0,0,1,180,12.91l11.09-2.79V34.31H179.82l-2.7-9.3c-2.7-1.6-6.3-2.4-10.7-2.4-9.89,0-15.09,5.8-15.09,20.89,0,16.5,4.8,21.59,17.09,21.59a20.87,20.87,0,0,0,6.1-.8V53.1h-8V42.5h29.59V53.1h-6.7v8.5h6.1Z" style="fill:#f0ad60"/><path d="M242.29,75.09V64.49h5.9l.3-.5V48.8H225.3V64l.3.5h5.9v10.6H202.91V64.49h5.89l.3-.5V23.71l-.3-.5h-5.89V12.61H231.5v10.6h-5.9l-.3.5V38.2h23.19V23.71l-.3-.5h-6.3V12.61h29v10.6H265l-.3.5V64l.3.5h5.9v10.6Z" style="fill:#f0ad60"/><path d="M341.65,32.91l-2-8.3a23.61,23.61,0,0,0-10.5-2.3c-7.89,0-11.69,1.9-11.69,6.3s2.4,6.4,13.89,8c17.9,2.5,24,7.5,24,19,0,14.09-9.69,21-27.29,21A86.37,86.37,0,0,1,303.16,73L301.77,54.2h12.09l2.3,9.69a43.22,43.22,0,0,0,11.09,1.4c8.2,0,11.6-2.2,11.6-7.59,0-4.6-2.9-6.6-14.49-8.4C306,46.4,301,40.9,301,30c0-14.4,12.19-18.89,26.68-18.89a60.7,60.7,0,0,1,16.4,2l9.19-2.89V32.91Z" style="fill:#f0ad60"/><path d="M410.62,73.09c-4.7,2.3-10.7,3.5-17.79,3.5-21.19,0-31.09-10.2-31.09-31.29,0-23.19,10.79-34.18,32.59-34.18A51.11,51.11,0,0,1,408,12.91l10.8-2.79V34.31h-11.3l-2.7-9.4c-2.7-1.6-6.4-2.3-10.79-2.3-9.9,0-15,5.8-15,20.89,0,16.5,4.1,21.59,16.4,21.59a19.6,19.6,0,0,0,10.79-3.19l2.6-9.2h11.3l-1.7,22.39Z" style="fill:#f0ad60"/><path d="M426.81,45.3c0-23.19,10.8-34.18,32.59-34.18,21.09,0,31,10.19,31,31.28,0,23.19-10.8,34.19-32.49,34.19C436.71,76.59,426.81,66.39,426.81,45.3Zm46.28-1.4c0-16.59-4.49-21.29-15.19-21.29-8.2,0-13.8,6.2-13.8,21.29,0,16.5,4.5,21.19,15.1,21.19C467.5,65.09,473.09,58.9,473.09,43.9Z" style="fill:#f0ad60"/><path d="M538.37,75.09,524.87,51.4h-6.2V64l.3.5h5.4v10.6H496.28V64.49h5.9l.3-.5V23.71l-.3-.5h-5.9V12.61h32.79c18,0,24.39,6.1,24.39,17.9,0,9.69-4.5,15.89-12.1,18.69l9.4,15.29h6v10.6ZM526.77,40.9c6.7,0,9.8-3.3,9.8-9.69,0-5.3-3.5-8-10.3-8h-7.6V40.9Z" style="fill:#f0ad60"/><path d="M562.16,75.09V64.49h5.89l.3-.5V23.71l-.3-.5h-5.89V12.61h59.17v23.3H609.74l-3.1-12.7H584.55V38.4h8.39L594,32h10l-1.7,22.79h-10.1V48.6h-7.69V64.49h21.29l4.6-12.59h12.19l-2.2,23.19Z" style="fill:#f0ad60"/></g><path d="M64.37,65V54.38h5.89l.3-.5V38.68H47.37v15.2l.3.5h5.9V65H25V54.38h5.9l.3-.5V13.59l-.3-.5H25V2.5H53.57V13.09h-5.9l-.3.5v14.5H70.56V13.59l-.3-.5H64V2.5H93V13.09H87.06l-.3.5V53.88l.3.5H93V65Z" style="fill:#f9df2b"/><path d="M99.55,65V54.38h5.9l.3-.5V13.59l-.3-.5h-5.9V2.5h28.59V13.09h-5.9l-.3.5V53.88l.3.5h5.9V65Z" style="fill:#f9df2b"/><path d="M195.51,61.08c-6.1,2.89-17.89,5.39-27.49,5.39-25.19,0-34-10.19-34-31.28C134,12,144.93,1,166.72,1A48.07,48.07,0,0,1,180,2.8L191.11,0V24.19H179.82l-2.7-9.3c-2.7-1.6-6.3-2.39-10.7-2.39-9.89,0-15.09,5.79-15.09,20.89,0,16.49,4.8,21.59,17.09,21.59a20.87,20.87,0,0,0,6.1-.8V43h-8V32.39h29.59V43h-6.7v8.5h6.1Z" style="fill:#f9df2b"/><path d="M242.29,65V54.38h5.9l.3-.5V38.68H225.3v15.2l.3.5h5.9V65H202.91V54.38h5.89l.3-.5V13.59l-.3-.5h-5.89V2.5H231.5V13.09h-5.9l-.3.5v14.5h23.19V13.59l-.3-.5h-6.3V2.5h29V13.09H265l-.3.5V53.88l.3.5h5.9V65Z" style="fill:#f9df2b"/><path d="M341.65,22.79l-2-8.3a23.61,23.61,0,0,0-10.5-2.3c-7.89,0-11.69,1.9-11.69,6.3s2.4,6.4,13.89,8c17.9,2.5,24,7.5,24,19,0,14.1-9.69,21-27.29,21a86.75,86.75,0,0,1-24.89-3.59l-1.39-18.8h12.09l2.3,9.7a43.22,43.22,0,0,0,11.09,1.4c8.2,0,11.6-2.2,11.6-7.6,0-4.6-2.9-6.6-14.49-8.4C306,36.29,301,30.79,301,19.89,301,5.5,313.16,1,327.65,1a60.35,60.35,0,0,1,16.4,2L353.24.1V22.79Z" style="fill:#f9df2b"/><path d="M410.62,63c-4.7,2.29-10.7,3.49-17.79,3.49-21.19,0-31.09-10.19-31.09-31.28C361.74,12,372.53,1,394.33,1A51.09,51.09,0,0,1,408,2.8L418.82,0V24.19h-11.3l-2.7-9.4c-2.7-1.6-6.4-2.29-10.79-2.29-9.9,0-15,5.79-15,20.89,0,16.49,4.1,21.59,16.4,21.59a19.52,19.52,0,0,0,10.79-3.2l2.6-9.2h11.3L418.42,65Z" style="fill:#f9df2b"/><path d="M426.81,35.19C426.81,12,437.61,1,459.4,1c21.09,0,31,10.2,31,31.29,0,23.19-10.8,34.18-32.49,34.18C436.71,66.47,426.81,56.28,426.81,35.19Zm46.28-1.4c0-16.6-4.49-21.29-15.19-21.29-8.2,0-13.8,6.19-13.8,21.29,0,16.49,4.5,21.19,15.1,21.19C467.5,55,473.09,48.78,473.09,33.79Z" style="fill:#f9df2b"/><path d="M538.37,65l-13.5-23.69h-6.2v12.6l.3.5h5.4V65H496.28V54.38h5.9l.3-.5V13.59l-.3-.5h-5.9V2.5h32.79c18,0,24.39,6.1,24.39,17.89,0,9.7-4.5,15.9-12.1,18.69l9.4,15.3h6V65Zm-11.6-34.18c6.7,0,9.8-3.3,9.8-9.7,0-5.3-3.5-8-10.3-8h-7.6v17.7Z" style="fill:#f9df2b"/><path d="M562.16,65V54.38h5.89l.3-.5V13.59l-.3-.5h-5.89V2.5h59.17V25.79H609.74l-3.1-12.7H584.55v15.2h8.39l1.1-6.4h10l-1.7,22.79h-10.1v-6.2h-7.69v15.9h21.29l4.6-12.6h12.19L620.43,65Z" style="fill:#f9df2b"/><path d="M64,2.5V13.09h6.29l.3.5v14.5H47.37V13.59l.3-.5h5.9V2.5H25V13.09h5.9l.3.5V53.88l-.3.5H25V65H53.57V54.38h-5.9l-.3-.5V38.68H70.56V45.1l16.2-14.25V13.59l.3-.5H93V2.5Z" style="fill:#f9df2b"/><path d="M119,2.5H99.55V13.09h5.9l.3.5v.56Z" style="fill:#f9df2b"/><path d="M195.51,61.08c-6.1,2.89-17.89,5.39-27.49,5.39-25.19,0-34-10.19-34-31.28C134,12,144.93,1,166.72,1A48.07,48.07,0,0,1,180,2.8L191.11,0V24.19H179.82l-2.7-9.3c-2.7-1.6-6.3-2.39-10.7-2.39-9.89,0-15.09,5.79-15.09,20.89,0,16.49,4.8,21.59,17.09,21.59a20.87,20.87,0,0,0,6.1-.8V43h-8V32.39h29.59V43h-6.7v8.5h6.1Z" style="fill:#f9df2b"/><path d="M242.29,65V54.38h5.9l.3-.5V38.68H225.3v15.2l.3.5h5.9V65H202.91V54.38h5.89l.3-.5V13.59l-.3-.5h-5.89V2.5H231.5V13.09h-5.9l-.3.5v14.5h23.19V13.59l-.3-.5h-6.3V2.5h29V13.09H265l-.3.5V53.88l.3.5h5.9V65Z" style="fill:#f9df2b"/><path d="M341.65,22.79l-2-8.3a23.61,23.61,0,0,0-10.5-2.3c-7.89,0-11.69,1.9-11.69,6.3s2.4,6.4,13.89,8c17.9,2.5,24,7.5,24,19,0,14.1-9.69,21-27.29,21a86.75,86.75,0,0,1-24.89-3.59l-1.39-18.8h12.09l2.3,9.7a43.22,43.22,0,0,0,11.09,1.4c8.2,0,11.6-2.2,11.6-7.6,0-4.6-2.9-6.6-14.49-8.4C306,36.29,301,30.79,301,19.89,301,5.5,313.16,1,327.65,1a60.35,60.35,0,0,1,16.4,2L353.24.1V22.79Z" style="fill:#f9df2b"/><path d="M408.82,42.58l-2.6,9.2A19.52,19.52,0,0,1,395.43,55c-9.93,0-14.51-3.32-15.91-13.28a59.44,59.44,0,0,1-.49-8.31c0-15.1,5.1-20.9,15-20.9,4.39,0,8.09.7,10.79,2.3l1.07,3.71h0l1.63,5.68h11.3V0L408,2.8A51.09,51.09,0,0,0,394.33,1c-21.8,0-32.59,11-32.59,34.19,0,7.64,1.3,13.85,4,18.66,4.68,8.47,13.6,12.62,27.12,12.62,7.09,0,13.09-1.2,17.79-3.5l1.61.41h0L418.42,65l.57-7.53,1.13-14.86Z" style="fill:#f9df2b"/><path d="M486.49,13.76a21.64,21.64,0,0,0-8.17-8.51C473.51,2.4,467.23,1,459.4,1c-21.79,0-32.59,11-32.59,34.19a45.2,45.2,0,0,0,1.86,13.73,23.6,23.6,0,0,0,6.2,10.25c4.68,4.48,11.46,6.87,20.44,7.24.84,0,1.71.06,2.59.06,20.62,0,31.4-9.93,32.4-30.84.06-1.08.09-2.2.09-3.34C490.39,24.72,489.11,18.55,486.49,13.76ZM446.6,48.85c-1.57-3-2.37-7.4-2.49-13.51,0-.5,0-1,0-1.55,0-15.1,5.6-21.3,13.8-21.3,4,0,7.15.66,9.51,2.36,2.79,2,4.49,5.51,5.24,11.09a62.14,62.14,0,0,1,.44,7.85c0,15-5.59,21.19-13.89,21.19C453.05,55,449,53.4,446.6,48.85Z" style="fill:#f9df2b"/><path d="M550.76,54.38l-9.4-15.3c7.6-2.79,12.1-9,12.1-18.69,0-11.79-6.4-17.89-24.39-17.89H496.28V13.09h5.9l.3.5V53.88l-.3.5h-5.9V65h28.09V54.38H519l-.3-.5V41.28h6.2L538.37,65h18.39V54.38Zm-24-23.59h-8.1V13.09h7.6c6.8,0,10.3,2.7,10.3,8C536.57,27.49,533.47,30.79,526.77,30.79Z" style="fill:#f9df2b"/><path d="M562.16,65V54.38h5.89l.3-.5V13.59l-.3-.5h-5.89V2.5h59.17V25.79H609.74l-3.1-12.7H584.55v15.2h8.39l1.1-6.4h10l-1.7,22.79h-10.1v-6.2h-7.69v15.9h21.29l4.6-12.6h12.19L620.43,65Z" style="fill:#f9df2b"/><polygon points="407.52 24.19 405.89 18.51 405.89 18.5 418.82 7.13 418.82 24.19 407.52 24.19" style="opacity:0.6000000000000001;mix-blend-mode:screen;fill:url(#a)"/><path d="M420.12,42.58,419,57.44l-6.75,5.94h0L410.62,63c-4.7,2.3-10.7,3.5-17.79,3.5-13.52,0-22.44-4.15-27.12-12.62L379.52,41.7c1.4,10,6,13.28,15.91,13.28a19.52,19.52,0,0,0,10.79-3.2l2.6-9.2Z" style="opacity:0.6000000000000001;mix-blend-mode:screen;fill:url(#b)"/><path d="M478.32,5.25l-10.91,9.6c-2.36-1.7-5.5-2.36-9.51-2.36-8.2,0-13.8,6.2-13.8,21.3,0,.53,0,1.05,0,1.55L428.67,48.92a45.2,45.2,0,0,1-1.86-13.73C426.81,12,437.61,1,459.4,1,467.23,1,473.51,2.4,478.32,5.25Z" style="opacity:0.6000000000000001;mix-blend-mode:screen;fill:url(#c)"/><path d="M486.49,13.76c2.62,4.79,3.9,11,3.9,18.53,0,1.14,0,2.26-.09,3.34l-35,30.78c-9-.37-15.76-2.76-20.44-7.24L446.6,48.85C449,53.4,453.05,55,459.2,55c8.3,0,13.89-6.2,13.89-21.19a62.14,62.14,0,0,0-.44-7.85Z" style="opacity:0.6000000000000001;mix-blend-mode:screen;fill:url(#d)"/><polygon points="502.48 24.92 502.48 13.59 502.18 13.09 496.28 13.09 496.28 5.15 499.29 2.5 527.96 2.5 502.48 24.92" style="opacity:0.6000000000000001;mix-blend-mode:screen;fill:url(#e)"/><polygon points="47.67 54.38 53.57 54.38 53.57 60.05 47.98 64.97 24.98 64.97 24.98 59.97 47.37 40.28 47.37 53.88 47.67 54.38" style="opacity:0.6000000000000001;mix-blend-mode:screen;fill:url(#f)"/><polygon points="92.95 2.5 92.95 13.09 87.06 13.09 86.76 13.59 86.76 30.85 70.56 45.1 70.56 38.68 49.19 38.68 61.23 28.09 70.56 19.88 90.32 2.5 92.95 2.5" style="opacity:0.6000000000000001;mix-blend-mode:screen;fill:url(#g)"/><polygon points="105.75 14.15 105.75 13.59 105.45 13.09 99.55 13.09 99.55 2.5 118.99 2.5 105.75 14.15" style="opacity:0.6000000000000001;mix-blend-mode:screen;fill:url(#h)"/><path d="M228.36,82.42l4.56-.32,9.85,8.55-9.87,56.1,2.72,6.72q-2.4,23.25-7.5,23.61l-2.48-2.16q.45,20.79-16.94,22-6.81.48-21.64-44.63l-4.56.32q-6.85,58.14-28.12,59.64l-9.2.65q-18-59.71-21.7-111.52l17.75-10.5q9.21-.65,10.17,13.11l2.25-.16L153,127l2.27,32.17,4.57-.33q12.44-61.54,16.26-63.46l9.2-.65q19.62,15.87,21.81,47l2.32-.16Q221.71,82.89,228.36,82.42Z" style="fill:none"/><path d="M247.66,97.41c.57-3.43-2.64,9.36-1.6,2-1.61,4.94-2.53,15.67-3.79,22-1.26.55-1.26-5.29-4.13,6-3.32,15.22,2,2.34-.35,16.06l2-9.32a49.46,49.46,0,0,1-.31,5.93c-.12,1.14-.27,2.34-.44,3.6l-.27,1.94,0,.42.17.34.69,1.67.84,2,.68,1.67c.11.28.24.56.33.84l-.1.91-.35,3.06-.27,2.12c-.19,1.42-.41,2.85-.65,4.3a75.93,75.93,0,0,1-2,8.86,28.49,28.49,0,0,1-1.84,4.76l-.33.64-.42.69-.44.67c-.19.25-.4.51-.6.75a7.51,7.51,0,0,1-.68.74q-.44.41-.9.78a6.2,6.2,0,0,1-1.15.73l-.32.17-.15.07.07-.05.12-.08c.05,0,0,0,0,0l-.1,0h0l-.28-.23-.29-.29c-.07-.05-.09,0-.14.07a2.6,2.6,0,0,0-.29.33,3.32,3.32,0,0,0-.36.54l-.21.37-.06.1a.6.6,0,0,0-.07.19l-.22.63a24.21,24.21,0,0,1-5.5,9.46,19.53,19.53,0,0,1-4.66,3.44,22.48,22.48,0,0,1-5.46,1.88,13.63,13.63,0,0,1-1.42.26c-.46,0-1,.18-1.58.21l-1.73.1a4.22,4.22,0,0,1-1.73-.13,7.71,7.71,0,0,1-3-2,15,15,0,0,1-1.26-1.37c-.4-.48-.69-.86-1-1.31.18.17.47.5.85.87a14,14,0,0,0,1.39,1.26c1,.76,1.85,1,1.63.5-.57-.63-1.17-1.4-1.78-2.23s-1.14-1.67-1.71-2.54c-1.11-1.75-2.18-3.53-3-4.86-2.42-3.51-2.53-2.83-2.4-1.5s.69,3.24-.49,2c-3.67-6.23-7-12.16-9.7-21.71q-.88-6.19-1.61-12.37c-.13-.16-.27-.33-.4-.51l2.34,1.57a22.27,22.27,0,0,1-4.49,1.29l3-2.87a71.91,71.91,0,0,1-2,14.21c-1.24,5.39-2.62,11.43-4.13,18.07-1.23,1.36-2.54,6.37-4.56,11.27a39.74,39.74,0,0,1-3.42,6.75,10.72,10.72,0,0,1-3.4,3.63c-1.36,1.59-2.44,2.17-3.19,2.28a2.05,2.05,0,0,1-1.71-.72c-.92-.91-1.83-1.79-4.29-1-2.05.74-2.75.59-2.76.49s.63-.39,1.22-.75,1.17-.75,1.12-.89-.2-.05-.6,0a16.32,16.32,0,0,1-1.91.39c.93-.33,1.62-.69,2.23-.93a6,6,0,0,1,.85-.32,3.73,3.73,0,0,1,.72-.23,10.58,10.58,0,0,1,2.46-.17,4.91,4.91,0,0,0,3.06-1.14c1.27-1,2.91-2.79,4.58-6.31-.29.14-.59.26-.89.39,1.1-3,3-6.88,4.38-10.77s2.43-7.7,2.13-10a48,48,0,0,1,2-7c.42-.83.68-.47.92.16.47,1.27.85,3.67,2.31-.36a74.38,74.38,0,0,1,.21-7.62c.18-3.23.33-6.85.35-9.94v-.78l1-.19c1.75-.33,3.3-.66,4.51-1l1-.27.83,1.49c.86,1.55,1.55,2.46,2,2.47l-.94-2.83-.72-2.17-2.27.16-4.56.33-2.4.17-.29,2.4c-.23,1.89-.46,3.78-.72,5.67.24-2.13-.4-.55-.46-1.44a18.76,18.76,0,0,0,.84-4.27l.28-2.61,2.73-.25c1.42-.14,3-.36,4.54-.65l2.36-.42,1.29,2.87c4.25,9.54,11.68,19.77,5.79,16.59-.95-1.51-2.34-6-3.4-7.06-1.08,1.09,2.57,9.47,5,15.8,2,3,4.31,6,6.75,9.34,1.21,1.63,2.48,3.36,3.72,4.82l.2.23.1.09.19.17a3.09,3.09,0,0,0,.39.33c.3.26.67.2,1.08.26a1.84,1.84,0,0,0,.26,0H211a3.13,3.13,0,0,1,.62.07,2.08,2.08,0,0,1,.69.26c.36.18.8.46,2.27,0a12.15,12.15,0,0,0,3-2.33,3.66,3.66,0,0,0,.55-.63l.51-.62c.28-.46.58-.87.82-1.31a21.28,21.28,0,0,0,2-5.21l.18-.62.15-1.06.31-2,.35-4,.14-1.87.07-.92,0-.22v-.12h0l.19,0a12.73,12.73,0,0,1,1.61.47h0l.4-1.28c.13.1.25.17.38.29l1.23,1.79,1.23,1.79.1.15h0s0,0,0,0,.16-.07.27-.16.23-.21.36-.36l.39-.52a15.66,15.66,0,0,0,1.46-3.11,49.12,49.12,0,0,0,2-9.62c.29-1.13.58-2.28.82-3.45.13-.59.25-1.19.36-1.79l.29-1.49c0-.12.07-.24,0-.35l-.11-.34-.23-.69c-.2-.57-.41-1.15-.61-1.73l-.67-1.82-.81-2.16c1.09-5.57,2.2-11.29,3.29-16.88s2.28-10.78,3.73-15.66c-1.6,2,1.15-9.77,1.84-12.72a37,37,0,0,0,1.42-4.22c.29-1,.57-2,.87-3.2s.59-2.51.86-3.82c-.68-.62-1.37-1.24-2.06-1.83s-1.39-1.17-2-1.62a11.84,11.84,0,0,0,1.43,1.1,1.57,1.57,0,0,0,.66.26c.33,0,.56,0,1.81.85-2.91-2.37-4.47-3.7-5.94-5.08-1.3-1.22-2.8-2.73-3.85-3.92-1-.07-1.79-.17-2.51-.29a6.4,6.4,0,0,1-1.66-.42,3.2,3.2,0,0,1-1.32-1l6.36-.93,2.3,1.65,1.1.79.53.36.33.21,2.57,1.54,1.27.81.65.43.33.23.09.06.14.11.3.23c1.6,1.24,3.36,2.67,5.34,4.35-.24,1.49-.53,3.12-.86,4.89L248,95.8Z" style="fill:#f9f9f9"/><path d="M136.78,196.24c1.56,1,.23-4.54-.63-9s-1.4-7.72,1.37-2.31A72.35,72.35,0,0,0,133,169.23c1.24,9.27-.86-2.13-.83,3a365.11,365.11,0,0,1-9-43.11q-1.54-10.7-2.44-21.28-.27-3.43-.52-6.84l-.07-.95,0-.24v-.12s.06,0,.09-.07l.41-.24,1.64-1,3.28-1.92,9-5.24,2.87-1.4.86-.44,1-.51,1-.44a1.45,1.45,0,0,1,.49-.18h.53A10.7,10.7,0,0,1,149,91a11.45,11.45,0,0,1,2.33,3.11,18.57,18.57,0,0,1,1.32,3.26,34.75,34.75,0,0,1,1.17,6.43l-2.54-2.21,2.23-.23,2.61-.27,0,2.79c0,3.87.16,7.71.32,11.56l.29,5.78c.06,1,.11,1.94.17,2.91l.09,1.45,0,.73,0,.37,0,.17c.45,2.71.91,5.44,1.37,8.21.15,12.17-2.25,4.42-3.76,1.76l1,15.23L153,136.84c-1-.42-.57,6.47-1,10.33l.54,4.27c-1.44-1.42-2.21-4.73-2.63-9.05-.21-2.16-.34-4.58-.42-7.14,0-1.28-.06-2.6-.1-3.94s-.05-2.82-.08-4.26c.15-1.88.3-3.78.45-5.67s.26-3.64.36-5.41a89.89,89.89,0,0,0,.07-9.8c-.17,17.53,1.54-2.68,2.23,4.75l.3-5.49c-.07,4.12.63,11.7.8,21.53.21,1.74.41,3.67.59,5.63l-.33-5.63c.27-7.69.43-15.47.51-23.09v-.73l-.71.06-2.24.2.66.57a22.39,22.39,0,0,0-2.4-8.89,8.79,8.79,0,0,0-3.19-3.33,8.1,8.1,0,0,0-4.4-1l-.56,0a1.33,1.33,0,0,0-.28,0L141,91l-.94.61-1.86,1.2-3.68,2.39-7.21,4.73L125.69,101l-.77.52-.37.25a.83.83,0,0,0-.18.13l0,.24.52,3.67c.36,2.75.83,5.46,1.24,8.14.91,5.33,1.89,10.49,3,15.44-.39-.79-1.07-3-1-.35,1.33,10.27,4.84,15.84,6.36,20.13-.53-1.43-1-2.87-1.51-4.31.06,6.48,3.59,16.44,5.49,23.87.75,8.41.73,14.19,5.24,27.72l-1-.21c.41,1.87.88,3.74,1.32,5.61l.66,2.81.67,2.7-.3-.74a5.52,5.52,0,0,0-.24-.52c-.15-.25-.24-.33-.31-.3s-.15.52-.16.83c-.51-.72-.49-1.35-.93-3.33-.71-.14-1.17,1-1.37,3,0,.49-.07,1-.09,1.6s.07,1.47.15,2.32c.16,1.73.44,3.79.83,6.05.74.07,1.61.12,2.53.16l-2.7.09c-.53-2-1-3.81-1.49-5.18.28,1.33.72,3.23,1.26,5.5l8.69-.07,2.79.11.65,0h.76c.52,0,1,0,1.47,0,.92-.05,1.69-.12,2.26-.17a2,2,0,0,1,1.06.08c.12.1,0,.3-.52.59a10.6,10.6,0,0,1-2.63,1.09,11,11,0,0,1-1.25.17l-.61.06-.29,0-.22,0-1.61.06-3.81.1c-3.29.09-5.95.08-8.18,0-.56-2.75-1-5.07-1.32-7.22l-.26-1.58-.13-.77c0-.23-.1-.57-.1-.68,0-.64-.12-1.29-.2-2A56.06,56.06,0,0,0,136.78,196.24Z" style="fill:#f9f9f9"/><path d="M173.83,182.8c-1.92,5-2,4.19-1.69,2.41s.72-4.61-.08-3.61c.82-3.06,1.52-6.18,2.13-9.33.55,0,.37,2.33.07,4.82S173.51,182.21,173.83,182.8Z" style="fill:#f9f9f9"/><path d="M163.38,118.69c1.06-.73,2.35-7.84,3.68-11.76l.93-5.21c.13-.76.28-1.51.44-2.25l.25-1.13.17-.63.29-.93a18.78,18.78,0,0,1,1.64-3.7,8.2,8.2,0,0,1,1.33-1.68,10.67,10.67,0,0,1,.9-.69s.11,0,.1-.13l.12-.06.24-.13a1.9,1.9,0,0,1,.54-.2l1.21-.31a5.75,5.75,0,0,1,1.31-.25l3-.2,5-.24c-1,.24-1.82.45-2.42.64a3,3,0,0,0-.76.48c-.32.29-.29.53,0,.73a2.4,2.4,0,0,0,.67.28,4.58,4.58,0,0,0,.64.1l.81.09c.57.06,1.21.1,1.88.14l.52,0,.26,0h.14l.1.11.82.87L189,94.49l.44.45.32.39.65.8c.91,1.05,1.77,2.22,2.61,3.38s1.58,2.36,2.25,3.49a31.1,31.1,0,0,1,1.61,3.22,56.73,56.73,0,0,0-8-8.21l-1.28-1.11-1.3-1-.64-.52-.32-.27c0-.07-.12,0-.19,0h-.21l-1.67.11c-1.1.06-2.33.1-3.48.09s-2.33-.06-3.57-.1c.09-.1,0-.18-.14-.23s-.46,0-.74.2a7.22,7.22,0,0,0-1.92,2.52l-.48,1-.45,1c-.27.61-.54,1.24-.78,1.86-.5,1.25-.93,2.45-1.27,3.42-.24,3.19,1.05,2.25,1.59,3.59s.32,4.88-2.24,17.2c-1.48,4.41-3.24,15.73-4.49,14.72-1.17,3,0,6.34-1.9,9.57l-1,1.63q1.14-7.8,2.36-15.6a8.13,8.13,0,0,0,1.18-3c-.8,1.35-.41-2.94-.28-6.36s0-6-2-1.18c-1.57,7-3,14.11-4.5,21.17-1.68,5-1.07-2.43.36-10.1C162.87,125.6,162.55,126.17,163.38,118.69Z" style="fill:#f9f9f9"/><polygon points="156.31 149.66 156.63 148.46 157.59 158.97 155.13 156.84 159.69 156.43 157.51 158.34 158.19 154.57 157.6 158.36 159.69 156.52 155.15 157.04 157.39 158.99 156.31 149.66" style="fill:#f9f9f9"/><path d="M209.49,122.44c-1.56-3.69-2.28-7.15-4.38-10.63l1.44-1.23A72.86,72.86,0,0,1,209.49,122.44Z" style="fill:#f9f9f9"/><path d="M138.74,98a23.34,23.34,0,0,1-3.83,3.26c-.81.57-1.67,1.16-2.56,1.75l-1.35.88-.68.45-.08.08a3.3,3.3,0,0,0-.27.3c0,.11.1.29.16.37.11-.46.49,1.92.93,2.75a6.75,6.75,0,0,0-.41-2.46c-.15-.24-.31-.11-.46-.16a.07.07,0,0,0,0,0v1.24q0,.82,0,1.65l0,3.3a60,60,0,0,1-1.15-6,1.13,1.13,0,0,0,0-.12l0,0,0-.09,0-.21-.1-.43c0-.14-.1-.33,0-.43l.36-.25.38-.25.72-.44,2.77-1.66C134.9,100.38,136.8,99.23,138.74,98Z" style="fill:#f9f9f9"/><path d="M207.84,123.53c1.31-6.24,1.68-10.07,2.3-14.14a66.45,66.45,0,0,1,4.34-15.57c1.55-3-.42,4.21,1.52-.26s1.77-5.77,2.5-8.29c-.48.54-.92,1.07-1.37,1.61.67-.81,1.54-2.11,2.67-3.56.3-.37.57-.73.91-1.12l.5-.57.57-.6A11.56,11.56,0,0,1,225,78.64a8.63,8.63,0,0,1,1.29-.5,7.42,7.42,0,0,1,1.52-.24c.33,0,.32,0,.4,0l.2,0,.36.1a2,2,0,0,1,.93.49c.32.36,0,.82-1.47,1.41a7.34,7.34,0,0,0-1,.2c-.27.1-.54.22-.81.35a6.87,6.87,0,0,0-1.14.83A9.72,9.72,0,0,0,223.77,83a20.19,20.19,0,0,0-1.72,3.08,38.28,38.28,0,0,0-2,5.64,88.63,88.63,0,0,0-2,9.94c-1,6.23-1.79,11.87-4.4,18.6l-2.47,2-1.42,8.51c-.33.53-.74.19-1.2,3-.47,6,1.83-4.11,2.67-3.42l-1.58,11.16v.12l-.14,0-2.31.33-.3,0-.06-.36-.48-3c-.06-2,.71,1.61.85,1a22.5,22.5,0,0,0-.49-5.41,43.2,43.2,0,0,0-1.34-4.61c-.5-1.46-1-2.87-1.4-4.33a24.82,24.82,0,0,1-.84-4.75,84.47,84.47,0,0,1,3.66,9.72c-2.25-12.33-5.8-21.49-11-29.07a82.07,82.07,0,0,1,6.81,10.37,87.17,87.17,0,0,1,4.77,10,83,83,0,0,1,3.31,9.75,76.63,76.63,0,0,1,2,9.93l-5.94-5.16,2.31-.3-5.18,4.52A111.39,111.39,0,0,1,207.84,123.53Z" style="fill:#f9f9f9"/><path d="M275.67,79.08l2.86-.2q16.25,6.7,47,59.54,6.72-.46,17.63,47.32l-8.1,6.24-8.51.6q-5.07-.33-18.89-24.38l-43.39,9.43q-7.71,9.72-8.37,25.69l-2.66,3-8.51.6-6.12-5.24-.4-5.72q-1.26-17.85,12.88-60.89Q267.79,79.64,275.67,79.08Zm5.87,42.4L272,147.87l.2,2.86,2.86-.2q14.7-1,22.7-3.15l-2.39-9.7A53,53,0,0,0,281.54,121.48Z" style="fill:none"/><path d="M286.15,126.35c.12-.43-1.35.84-1.26-.14-.91.37-.48,2-.9,2.73-1.11-.3-1.8-1.33-3.12-.22-1.28,1.66,2.09,1,1.59,2.75l.71-1.05c1.37,1.8-.8,4.11-1.12,6.23-1.79,1-4.91,1.41-5.09,3.53-.12-.17-.33-.78-.93-.89-.64.17-.6.89-.52,1.34.85,1.45,1.79.33,2.6,1.05.3,1.06.89,2.18-.18,3.13l-2.86.62c1,.78,1.1,1.33.88,1.85a1.63,1.63,0,0,1-.22.38l-.22.18a3,3,0,0,0-.49.46.82.82,0,0,0,.23.83c-.74.24-.6.82-.41,1.42L272,148.08c.68-.22,1.39-.52,1.67.33,1-.11.49,4.36,1.38,5.53,1.49.92-.93.81.56,1.74-1.49.75-.79-4.28-2.8-3.58l.14.59a.81.81,0,0,1-.6.32l-2.24.19-.19-2.31a11.53,11.53,0,0,1,.17-1.28,1.26,1.26,0,0,0-.79-1.28,2.51,2.51,0,0,1,.13-.81c.57-.67,1.06-.36,1.65-.09a2.4,2.4,0,0,0,2,.22c-.59-.37-.74-1.29-1-2.15a3,3,0,0,0-1.58-2.06l-.56,1.62c0-.28-.43-.22-.56-.39,2.22-.45-4.12-6.07,1.12-3.24.26.33-.13.84.43,1.23,1.32.38,1.07-1,1.49-1.74-1-1.34-2.89-3.12-1.65-4.18.51-.34,1.19.22,1.71-.12-.42-3.23,2.61-2,3-5.1,2.24-1.22,1.9-3.82,4.15-5-1.25-.15-.09-1.38.19-1.69.62-.06,1.82-.75,1.76-1.57-.13.43.49.36.68.76,0-1.81,1.91-1.46,3-1.16C285.54,124.34,287.3,125.12,286.15,126.35Z" style="fill:#f9f9f9"/><path d="M278.87,146.74c-.12,2.51,2.92.54,1.68,3.44,1.08.36,1.51-.12,2-.91-1.27-.73.25-.39-.49-1.43a26.46,26.46,0,0,1,5.37-1.71c.44-.09.88-.18,1.32-.25l.65-.11.52-.07c.49-.06,1-.1,1.52-.13,1.28.7,2.39.49,2.65,0a.57.57,0,0,0,.07-.22.49.49,0,0,0,0-.12s0-.08-.08-.16a10.49,10.49,0,0,0-.77-.86,10,10,0,0,0-1.68-1.39,3.56,3.56,0,0,1,1.8.19,16.41,16.41,0,0,1,2.5,1.08l-.35-1.64a20.08,20.08,0,0,1,2.18,2.22c1.08.41.92-.58,1.52-1.11l-.44-.74a3.24,3.24,0,0,1,2.73,3.82c0,.76-.22,1.46-.25,2.15a3.13,3.13,0,0,0,0,.53l0,.27,0,.13s-.09,0-.13,0a1.44,1.44,0,0,0-.79.45,3.52,3.52,0,0,0,.72-.34c.12-.11.2-.16,0-.32a.69.69,0,0,0-.32-.22c-.11,0-.19,0-.43-.12-.85-.24-1.86-.51-1.83-1l-.93.08a.71.71,0,0,0,.38-.33l.13-.26-.39-.6a16,16,0,0,1-1.49-2.47,9.21,9.21,0,0,0,.25,1.42c.06.24.13.49.21.74-.22.08-.44.16-.64.25a18.39,18.39,0,0,0-2.46,1.25L290.87,150a33.44,33.44,0,0,0-2.77,1.93c.07-.29.31-.69-.07-1-1.34.08-1.83,2.6-2.35,3.4l.51-.79c-1-.92-2.15.76-3.15,1.08-1.23-1-2.07-2.26-3.86-1.28l0-1-1.53-.37c.36-.2.17-.58.08-.77.09-.29.18-.1.45,0a7.69,7.69,0,0,0-1.84-4.33,1,1,0,0,0,.71.1c-.72-.58-3.09-1.45-2-3C276.89,144,277.12,147.23,278.87,146.74Z" style="fill:#f9f9f9"/><path d="M269.05,149.41c-.35.84-.61.68-.9.48s-.65-.83-1.14-.53l-.25-2.2C267.85,147.28,268.09,149.3,269.05,149.41Z" style="fill:#f9f9f9"/><path d="M290.21,138.85c.69-.55-.11-1.07-.18-1.6-1.11-.44-2.09,0-2.45-1.43,2.76-.61,2-2.76,2.6-4.58.69.37,2.76.58,2.31,2.31-.7.32-.51,1.42-.44,2,1.51,0,2.93-2.73,5.16-.1a2.34,2.34,0,0,0,.26.77,1.92,1.92,0,0,1,.32.85c.08.6,0,1.1-.72,1.21-.39.54,1.45.47.4,1.2l-.52.37-1.37-1.76c.17-.13.51-.43.38-.6-.38.36-1.14,0-1.89.05a2.9,2.9,0,0,0-1.09.17,1.49,1.49,0,0,0-.47.33c-.14.16-.27.35-.42.52a1.67,1.67,0,0,1,.33.65l.32,1.12a.69.69,0,0,1-1,.24,2.21,2.21,0,0,1-.56-.43l-.24-.29a.74.74,0,0,1-.13-.08c.44-.37.5-.61.42-.67s-.11,0-.29-.05S290.52,138.92,290.21,138.85Z" style="fill:#f9f9f9"/><path d="M294.82,142.57l-.39.06c-.28-.57-.54-1.1-.8-1.59A18.74,18.74,0,0,1,294.82,142.57Z" style="fill:#f9f9f9"/><path d="M285,132.44c.62,0,.46.65,1.07.72l-1.41,1.18C284.75,133.71,284.86,133.08,285,132.44Z" style="fill:#f9f9f9"/><path d="M296,152.75c-.05.86-1,1.28-1.93,1.62s-1.92.64-2.31,1.42c.88-.11.49-.46.62-.77l-.85-.13-.39-.08-.24-.1c.14-.32.71-.6,1.1-.79a6.21,6.21,0,0,1,1.29-.46A22.56,22.56,0,0,0,296,152.75Z" style="fill:#f9f9f9"/><path d="M282.19,129.17c-1.22-.83-2.74.5-3.29-1.3.06-.62.93-.43.81-1.09s-.71-.16-1.13,0l-.21.59a16.45,16.45,0,0,0,.38-1.95,2.78,2.78,0,0,1,1.33-2c.71.9,1.94.65,3.06.56s2.09,0,2.07,1.31l-1.14,1.61,1.09.4c-.09.19-.46.5-.09.64,1.09,0,.28-1,1-1.66.78.22,1.55.48,2.33.74.09.27-.57.22-.66.41-.05,1.36,2.53,0,1.78,1.77-.56-.11-1.1-.22-1.65-.31a8.1,8.1,0,0,1,1,4c-.73-1.36-2.37-1.56-3.8-1.76S282.41,130.77,282.19,129.17Z" style="fill:#f9f9f9"/><path d="M291.54,80.64c-.87-.74.17.48.84,1.54s1.12,1.88-.64.35a19.27,19.27,0,0,0,1.93,2.29c.76.83,1.66,1.71,2.58,2.6l2.64,2.72a31.64,31.64,0,0,1,2.17,2.56c-.3.54-1.19.29-1.54.66s-.1,1.32,1.65,4.34a15.93,15.93,0,0,0,2.62,3.31,1,1,0,0,0,1.19.21c.63-.25,1.31-.69,3.77,2.67-1-1.62-2.07-3.2-3.1-4.81,2.47,1.74,5.45,5.59,8.38,10s5.88,9.47,8.63,13.49c.91,2.36,1.62,4.75,2.38,7.17a74,74,0,0,0,2.57,7.44L325.38,136a5.69,5.69,0,0,1,1,.12,5.59,5.59,0,0,1,.9.31,7.33,7.33,0,0,1,.73.42c.2.15.4.3.59.46a11.63,11.63,0,0,1,1.67,1.93c.89,1.29,1.62,2.61,2.4,4-.37-.43-1.94-2.37-2.22-1.62a33.61,33.61,0,0,0,2.86,6.07c3,4.2,1.16-2,2.78-.58,2.15,3.74,4.3,7.28,5.29,13.12q-.18,3.84-.46,7.63c2.14,1.93,2.93,5,3.58,8.67.15.92.31,1.88.47,2.88l.12.76.06.38.1.54.43,2.22c.16.75.31,1.5.47,2.27l.27,1.16,0,.15s-.07.07-.1.1l-.24.18-.47.38c-1.27,1-2.54,2.06-3.85,3.24a4.29,4.29,0,0,0-1.06.3,7.88,7.88,0,0,0-1.21.7c-.22.15-.44.32-.67.49l-.77.6-2.05,1.68-3.25.36c-.81.09-1.59.17-2.31.22a13.2,13.2,0,0,1-1.9,0,3.58,3.58,0,0,1-1.63-.37,3,3,0,0,1-1.68-.39,2.12,2.12,0,0,1-.71-.84,2.55,2.55,0,0,1,.22-1.77,5.68,5.68,0,0,0,.66-3.64,9.31,9.31,0,0,1-.75-1.2c-.13-.27-.14-.4-.09-.44s.51.2.89.47c.2.13.39.23.54.31s.21,0,.26,0,.09-.11,0-.35-.14-.26-.25-.44-.26-.45-.44-.73a6.64,6.64,0,0,1,1.09,1.09,1.32,1.32,0,0,1,.08.58c0,.44-.1,1-.06,1.66a1.6,1.6,0,0,0,.9,1.58,3.31,3.31,0,0,0,.63.21,7.47,7.47,0,0,0,1,.09,18,18,0,0,0,2.91-.18l-.5-.56.73-.2.67-.13a8.25,8.25,0,0,1,1.15-.13l.77-.53,1-.67c.78-.53,1.57-1.06,2.28-1.58,1.08-.79,1.91-1.58,1.73-2.23l.12-.08s0-.08,0-.12l0-.25-.06-.46c0-.29,0-.54,0-.75a2.66,2.66,0,0,1,.12-.94c.17-.4.51-.38.92-.15a7.89,7.89,0,0,0,1.32.73c.41.08.74-.16.74-1.6-1-1.26-2.27-4.64-3.6-7.67s-2.7-5.72-3.73-5.66c.68,2.51,1.33,5,2,7.55-.36-1.21-.53-.17-.83-.62.29-2.85-2.38-7.23-4.34-10.49s-3.19-5.48.21-4.48c.63.87,1.22,3.55,2.06,4.15,1.21-.75-.9-5.71-2.06-9.52-1.32-1.72-2.94-3.46-4.46-5.4-.76-1-1.5-2-2.17-3s-1.32-2.11-1.67-2.8a.46.46,0,0,1,0-.45s0,0,0,0a.74.74,0,0,0,.09-.12l.18-.22c.1-.15.17-.27.24-.39.15-.29.26-.4.41-.74l.11-.3a1.77,1.77,0,0,0,.08-.22l0-.15a.75.75,0,0,0,0-.11.29.29,0,0,0,0-.14l-3.08-.16,0-.1a43.08,43.08,0,0,1-6.47-11.32,47.61,47.61,0,0,0-6.5-11.9,50.4,50.4,0,0,0-3.1-6.13c-1.23-2-2.52-4-3.91-6-2.7-4-5.59-7.85-7.75-11.73,0,.89-1.08-.1-2.25-1.5s-2.56-3.12-3.13-3.8a14.67,14.67,0,0,0-2.24-3.35,19.16,19.16,0,0,0-2-2,15.27,15.27,0,0,0-2.3-1.64c1.71,1.18,1,0,2.37.63l-4.2-2.76c-1.3-.72-2.23-1.68-3.16-1.64-1.91-.42-2.22-1.16-2.53-1.71l1.11-.23L278,74.6a13.45,13.45,0,0,1,1.43-.25l1.24.37,2.35.68c.57.18,1.06.33,1.59.52a16,16,0,0,1,1.6.63,18.37,18.37,0,0,1,1.6.92A19.79,19.79,0,0,1,291.54,80.64Z" style="fill:#f9f9f9"/><path d="M308.43,176.32c.74,0,.71-.71.36-1.75-.09-.26-.19-.54-.31-.83l-.27-.69-.62-1.42c-.21-.48-.41-.94-.56-1.36l-.1-.31c-.05-.06-.13,0-.19-.06a.45.45,0,0,1-.25-.13c-.1-.11-.05-.3.27-.6a4.91,4.91,0,0,1,.72-.54,2.36,2.36,0,0,1,.78.38l-.4-.85s-.05-.17-.12-.17l-.19,0-.39.06c-.52.08-1,.17-1.48.26a24.6,24.6,0,0,0-2.48.64,22.79,22.79,0,0,0-3.78,1.64c5.53-.32-1.23.64,1.88,1.1-8.45,2.48-16.78,4.61-25,6.52l-6.14,1.4-2.83.62-.83.18c-.12.05-.3,0-.38.13l-.26.34c-.17.21-.34.45-.51.69l-.27.4-.37.6c-.5.78-1,1.6-1.39,2.43a39.63,39.63,0,0,0-2.18,5.2,26.58,26.58,0,0,0-2.54,8.42c-.11.72-.18,1.45-.23,2.17,0,.3-.06.88-.07,1.36l-.05,1.5v.37a.39.39,0,0,1-.13.37l-.62.74-.31.36-.15.19,0,0s-.05.06,0,0l.2-.21-.47.58-.47.58-.55.64-.24.3-1,1.21c-1.81.25-4.14.56-5.28.81s-3.56.61-5.71,1L241.16,209l-1.23-.87-.83-.52c-.83-.44-2.93-2-4.72-3.23L234,204c0-1.44,0-2.57.07-3.43,0-.43.07-.8.12-1.1l.07-.42a1.12,1.12,0,0,1,.1-.22c.25-.51.59-.55,1-.33a2.46,2.46,0,0,1,.58.53l.61.93a8.73,8.73,0,0,0,1.16,1.53l-.31-4.8c-.09-1.5-.16-3.06-.11-4.57.23,1.54.57,3.07.93,4.55l.55,2.23.54,2c.47-.09.67-1,.83-2a29.2,29.2,0,0,1,.52-3.88c-.11-.78-.24-1.58-.3-2.39a4.94,4.94,0,0,1,1.87,3.12,16.75,16.75,0,0,1,.41,2.59,7,7,0,0,1,0,1.3c.16.18.33.39.5.61l.27.34.71.72.71.74a1.88,1.88,0,0,1,.24.27l.16.2.69.84c.36,0,.75.07,1.15.09h.81l1.09,0,1.07-.05.35,0,.28,0a5.74,5.74,0,0,0,1-.19,4.66,4.66,0,0,0,.27-.47l-.31.4a5.87,5.87,0,0,0-1.91.52c-.12.1-.07.18.09.27s.44.17.6.27a11.85,11.85,0,0,1,1.28.59c.3.21.35.44-.5.71l1.59,0,.86-.86c-.24.27-.49.6-.78,1-1.67.32-4.48,1-8.22,1.63-.76-.52-1.59-1.12-2.47-1.77s-1.62-1.21-2.6-2L242,205.5l2.54,2.21c3.33-.22,5.86-.42,9.11-.72.7-.82,1.39-1.64,2.09-2.45l.56-.66a3.75,3.75,0,0,0,.26-.33v-.4l0-1.58c.07-2,.19-3.85.39-5.76a49.77,49.77,0,0,1,2.45-11,38.61,38.61,0,0,1,2.21-5.11c.49-.88,1-1.79,1.6-2.68l.21-.34.11-.17c.05,0,.12,0,.17-.07l.73-.23,1.49-.47.75-.23.62-.21,1.23-.41,2.43-.82,4.73-1.64c-.43.38-1.65,1-.08,1,6-1.2,9-4.36,11.45-5.64l-2.46,1.28c3.92.2,9.65-2.62,14.06-3.8l1.86,0,.89,0h.44l.67,0c1.78-.11,3.43-.22,5.15-.4l1.31-.16.17,0s.06,0,.08,0l0,.08.17.34.34.68c.47.91,1,1.84,1.51,2.81.29.48.58,1,.88,1.49l.47.77.4.61c.49.75,1.05,1.53,1.68,2.36l-1,.26c1,2,2.1,4,3.19,5.95-1.05-1.3-1-.51-1-.1-.5-.26-.53-.66-1.08-1.72-1.43.41-1.26,4.44.21,8.24a26.13,26.13,0,0,0-1.79-2.82c.62,1.5,2.33,4.65,3.63,7,.33.59.62,1.13.83,1.59a3.45,3.45,0,0,1,.39,1.07c0,.48-.53.43-1.85-.51a19.92,19.92,0,0,1-3.22-5,21.71,21.71,0,0,1-1.21-3.67A21.82,21.82,0,0,0,308.43,176.32Z" style="fill:#f9f9f9"/><path d="M338.08,185.84c-.34.13-1,.54-1.34.69a1.87,1.87,0,0,1-.69.23c-.22,0,0-.36.36-.81l.58-.72a.8.8,0,0,0,.13-.41.48.48,0,0,0-.35-.53l.59-.52c.16-.06,0-.22,0-.35l-.12-.38a1.05,1.05,0,0,1,.75.33,2.71,2.71,0,0,1,.34.39c.09.15.29.36.17.46C338.32,184.73,337.89,185.39,338.08,185.84Z" style="fill:#f9f9f9"/><path d="M238.2,161.05c.49-.17.91-1.32,1.3-2.71s.81-3,1.24-4.13c.64-4.77-.06-6.2,2.45-12.62.45,2.93,1.64,1.81,3.08-.54s3.21-5.91,4.66-8c-.32,1.66-.62,4.07-1.19,6.66a25.48,25.48,0,0,1-2.77,7.71c-.54-.84-2.37,3.62-3.23,5.86.11,1.94,1.25,1.5,1.92,2.39s.82,3.08-.69,10.29c-1.12,2.53-1.81,9.19-3.12,8.49-.89,1.75.6,3.79-.91,5.63l-.75.94c.14-3.08.44-6.17.77-9.26a3.27,3.27,0,0,0,.91-1.73c-.67.75-.68-1.83-.81-3.91s-.51-3.68-2.07-.92c-1,4.18-1.87,8.39-2.56,12.67-1.12,3-1.35-1.55-.59-6.2C238.23,165.23,238,165.59,238.2,161.05Z" style="fill:#f9f9f9"/><path d="M236.45,193.55l-.37.73a73.58,73.58,0,0,1,.32-11.52A76.22,76.22,0,0,0,236.45,193.55Z" style="fill:#f9f9f9"/><path d="M249.68,120.82c-.25,2.24-1.31,3.9-1.53,6.13l-1.84-.29Z" style="fill:#f9f9f9"/><path d="M253.58,187.94c-.32-1.82.52-4.74,1.75-7.47.29-.69.64-1.35.94-2s.68-1.3,1-1.9c.53-.87,1-1.7,1.42-2.47a20.11,20.11,0,0,0,1.07-2.12,8,8,0,0,0-1.62,2.51c-.06.31.12.34,0,.81.75-.93,1.59-1.85,2.37-2.74l.3-.34.46-.07.91-.15,1.82-.27-1.53.55-.74.27-.37.13-.18.06c-.06,0-.08.11-.13.16l-1.74,2.74c-.53.87-1.19,1.85-1.43,2.36s-.69,1.23-1,1.86A37.69,37.69,0,0,0,253.58,187.94Z" style="fill:#f9f9f9"/><path d="M257.15,99.75a77.78,77.78,0,0,0,2.2-8.36,25.15,25.15,0,0,1,4.25-9c1.51-1.59-.49,2.72,1.41.27s1.8-3.44,2.67-5.09l-1.35.74c.64-.37,1.56-1.06,2.69-1.79a12,12,0,0,1,4.73-1.9,7.42,7.42,0,0,1,1.48,0c.15,0,.16,0,.2,0l.12.06.22.11a1.49,1.49,0,0,1,.56.51c.2.38,0,.82-.83,1.38a5.58,5.58,0,0,0-3.08,1.18,9.27,9.27,0,0,0-1.71,1.63,15.75,15.75,0,0,0-2,3.2,33.4,33.4,0,0,0-2,5.85c-.92,3.68-1.64,7-4.12,10.52l-2.36.66q-.69,2.48-1.33,5c-.31.26-.71,0-1.13,1.62-.44,3.6,1.73-2.15,2.55-1.54-.76,3.2-1.46,6.41-2.13,9.62-.49,1.09-.21-1.12-.51-.85-2.39,4.09-.57,7.73-3.4,11l.84-6.09c-2.47,6.87-4.89,11.91-7,16.56,2.33-6.86,2.94-12.68,3.78-18.23S253.82,105.78,257.15,99.75Z" style="fill:#f9f9f9"/><path d="M402.24,70.15q18,6.88,18.88,18.72,1.8,25.66-39,50.3l-2.3,2.65.17,2.48q63.19,9.13,64.7,30.47l.17,2.48-2.3,2.65.18,2.47q-48.54-14.06-76.27-17.15l-2.29,2.72.17,2.48,4.06,22.25-7.16,5.4-2.47.17q-15.54-7.61-16.5-21.29l-1.75-24.9-.86-47.41L336.1,89.82A159.22,159.22,0,0,1,402.24,70.15Zm-42.31,38L361,123.1l2.47-.17q18.33-12.18,25.79-24.35l-2.48.17Q359.55,102.62,359.93,108.18Z" style="fill:none"/><path d="M366.11,110.66c-.06-.43-.89,1.27-1.2.37-.66,1,.3,1,.18,1.36-.56.22-1.09.35-1.58.53a2.2,2.2,0,0,0-1.32,1.17c-.26.9.3.61.95.19s1.38-.87,1.46-.59c.09-.23.17-.44.26-.64.93-.35,1.09-.36,1.08-.12s-.17.76,0,.67c-.29.56-.67,1.31-1.05,2.16a5.67,5.67,0,0,0-.42,1.15,7,7,0,0,0-.21,1,2.47,2.47,0,0,0,.13,1.48.68.68,0,0,0,.15.18.35.35,0,0,0,.17,0,1.49,1.49,0,0,0,.45-.38,11.08,11.08,0,0,0-.85,2c0,.67.66-.13,1-.64a5.42,5.42,0,0,0,.62-2.3,6.48,6.48,0,0,1,.27-1.81c.27-.58.5-1.22.66-1.62s.26-.55.45-.26a6.39,6.39,0,0,0,1,2.38c-.05-1.92,0-2,.55-2.08a3.38,3.38,0,0,0,.84-.13.94.94,0,0,0,.39-.24,1.78,1.78,0,0,0,.42-.61c1.32,1,1.52-2.06,2.8-1,.23-.21,1,.54,1.94,1.42s1.89,1.9,2.79,1.94c1.16-.33,1.07,0,.92.38s-.31.77,1,.33c-.72,1.08-1.68.46-2.63-.17a5.35,5.35,0,0,0-1.4-.75.83.83,0,0,0-1.08.32l.46.4c-.08,1.27-2.32.65-1.82,2.36-1.22.71-1.47.17-1.7-.53s-.49-1.56-1.21-1.85a5,5,0,0,1-.67,2.61,6.81,6.81,0,0,0-.81,3.28l1.88-1.38c-.28.27.11.51,0,.78-.52-.23-.91.21-1.36,1s-.93,1.91-1.44,2.81-1,1.51-1.24,1.5-.25-.72,0-2.6c.26-.56.95-.71,1.09-1.58-.21-1.53-1.3,0-2.19.34-.26.53-.61,1.24-.92,1.8a11.68,11.68,0,0,1-1,1.58c-.72.91-1.53,1.43-2.17,1.16s.15-1.21-.33-1.55a5.15,5.15,0,0,1-2.36.53.52.52,0,0,1-.18,0v-.22a3.69,3.69,0,0,1,0-.47,8,8,0,0,1,.07-1c.13-1.32.48-2.69-.11-4a12.07,12.07,0,0,0,.43-2.26c.06-.66.11-1.36.11-2a6.81,6.81,0,0,1,.84-3.74c-1.19.63-.65-1.27-.5-1.59.53-.3,1.35-1.37,1-2.08.06.43.6.13.93.41-.7-1.61,1.17-2.05,2.3-2.22C364.74,109.12,366.67,109.12,366.11,110.66Z" style="fill:#f9f9f9"/><path d="M374.46,110.19a3.19,3.19,0,0,0,2.61-.1,3,3,0,0,1,1-.26,3.25,3.25,0,0,1,1.63.41c1.31-.66,1.18-1.08.37-1.4-1,.39-1.09.33-1.2.25s-.24-.17-1.24,0a3.64,3.64,0,0,1,.43-2.19,14.38,14.38,0,0,1,2-2.38,13.91,13.91,0,0,0,2.47-1.82,1.5,1.5,0,0,0,.39-.51.25.25,0,0,0,0-.08s-.12,0-.17,0l-.53.17a31.65,31.65,0,0,0-3.49,1.49c-1.32.67-2.7,1.44-3.95,2.2a32.43,32.43,0,0,1,3.1-2.4c1.45-1,3.26-2.2,4.77-3.18l-1.53.17c.75-.41,1.53-.83,2.35-1.25s1.48-.72,2.25-1.08c1.63-1.1.8-1.06,1.32-1.81l-1,.36c3.65-2.63,5-2.71,5.73-2.36.36.17.55.45.94.58a3.59,3.59,0,0,0,2.3-.27,4.58,4.58,0,0,0-2.85,1.17,6.65,6.65,0,0,1-2.43,1.58l.46.11a27.29,27.29,0,0,0-2.74.9c-.57.19-1.38.54-2,.81s-1.29.51-1.78.66a7.13,7.13,0,0,0,1.39-.08A16.86,16.86,0,0,0,387,99.6c.23,0,.53-.13.75-.16a.93.93,0,0,0,0,.29,2,2,0,0,0,.14.54c0,.08.07.16.11.25v.31c0,.21,0,.42,0,.62a12.49,12.49,0,0,0,.59,2.5,2.38,2.38,0,0,0-1.45.38c-.53.58,0,.79.77,1a8.06,8.06,0,0,1,2,.53c-.21-.15-.41-.29-.63-.42-1.1.58-1.31,1.06-1.35,1.58a4.27,4.27,0,0,1-.28,1.66c-1.27.62-2.55,1.07-3.51,1.56a4,4,0,0,0-2.07,2l-1-.33L379.17,113c.15-.37-.4-.4-.66-.43-.2-.19.06-.16.39-.32a16.73,16.73,0,0,0-2.8-.67c-1-.18-2-.37-2.58-.51.2,0,.42,0,.41-.15a6.22,6.22,0,0,1-1.68-.21,4.83,4.83,0,0,1-1.6-1.11c.07,0,.88.39,1.79.63S374.33,110.55,374.46,110.19Z" style="fill:#f9f9f9"/><path d="M374.28,118.86c1.61-.25.31,1,1.18,1.65l-.23.22c-.08.07-.15.14-.29.25l-.76.63c-.31-.44-.1-1,.1-1.46A1.46,1.46,0,0,0,374.28,118.86Z" style="fill:#f9f9f9"/><path d="M372,106.7c.74-1.08,0-.5,0-.75-.87.92-1.31,2.11-1.39,1.61.55-1.49.85-2.4.67-3a7.09,7.09,0,0,0-1.11-1.84,14.08,14.08,0,0,1,1.4-1.28c.59-.4,1.3-.63,1.55,0a1.07,1.07,0,0,0,.39,1.45c.7-.82,1.26-2,1.95-3a6.7,6.7,0,0,1,4.07-2.7c.34.36,2.84-.67,1.11,1-.17.54,2.42-1.64,1.49-.31l-.49.67c-1.09.46-2.12.92-3.1,1.4.15-.22.41-.66.13-.53a18.05,18.05,0,0,1-2.44,2.19,9.07,9.07,0,0,0-2.29,2.82l1.53-.36a8.43,8.43,0,0,1-1.41,1.37c-.56.45-1.07.84-1.34,1C373.44,105.25,373,105.55,372,106.7Z" style="fill:#f9f9f9"/><path d="M379.94,101.68l-.62.55c-.79.27-1.53.53-2.23.8Q378.4,102.37,379.94,101.68Z" style="fill:#f9f9f9"/><path d="M369.57,107.88c.19-.29.16-.27.23-.27s.1,0,.13-.23l.26,1.84a3.59,3.59,0,0,0-.17-.72C369.92,108.28,369.91,108,369.57,107.88Z" style="fill:#f9f9f9"/><path d="M396,96.94c1.21-.32,1.09.24.94.76s-.36,1.09.57,1c.4-.57-.37-.13-.74-.08L395.25,100C394.14,99.47,395.63,98.1,396,96.94Z" style="fill:#f9f9f9"/><path d="M366,109.07a1.48,1.48,0,0,0-.3,1.43,1.85,1.85,0,0,0,.11.44h0l-.09-.11-.26-.3-.52-.58c-.17-.18-.36-.36-.56-.55s-.34-.33-.56-.49c-.69-.53.85.67-.15-.11a5.78,5.78,0,0,0-.84-.55l-.38-.17.19.08-.17-.07-.18,0-.09,0h.05l2.26-.16h0l-.06,0-.13,0a2.39,2.39,0,0,1-.54.15,3,3,0,0,1-.61,0l-.34,0-.18,0-.1,0h-.26c-.06,0-.06,0,.14,0a.56.56,0,0,1-.22-.23,3,3,0,0,1-.36-1.32c-.05-1,.34-2,1.57-1.56.4.52.78,1.06,1.15,1.6.2-.29.42-.57.64-.85.15.15.31.6.54.33.31-1-.81-.65-1.16-1.54a23,23,0,0,1,1.47-1.86c.27,0,0,.6.13.76,1.2.57.91-2.33,2.24-1-.31.46-.6.92-.89,1.39a4.52,4.52,0,0,1,1.09-.06,2.9,2.9,0,0,1,.82.21,3.7,3.7,0,0,1,1.16.76,1.39,1.39,0,0,0-1.11.82,13.79,13.79,0,0,1-.92,1.73C367.8,108.52,367.27,109.53,366,109.07Z" style="fill:#f9f9f9"/><path d="M420.75,74.6c-.56-.57-.49-.41-.17.07s.9,1.28,1.33,2.08a4.67,4.67,0,0,1,.72,1.67c-.05.2-.37-.25-1.46-1.48.29.51.65,1,1,1.68l.57,1,.57,1.07a21.64,21.64,0,0,1,2,5.09,23.05,23.05,0,0,1,.52,2.83c.05.85.1,1.7.15,2.52,0,.41.05.82.05,1.21l-.07,1.17c-.05.76-.12,1.49-.19,2.15-.6.23-1-.84-1.55-.8s-.95,1.19-2.48,5.31l-.62,1.84c-.18.54-.4,1-.54,1.38a9.9,9.9,0,0,0-.53,1.81c-.14.87,0,1.11.3,1.36a1.19,1.19,0,0,1,.48,1.22,11.06,11.06,0,0,1-1.88,4.42c.68-1,1.4-2,2-3.14a36.5,36.5,0,0,0,1.75-3.34,14.43,14.43,0,0,1-.89,3.24c-.22.59-.45,1.22-.74,1.84s-.64,1.24-1,1.89a32.16,32.16,0,0,1-2.51,4,48.59,48.59,0,0,1-3.12,4c-4.5,5.24-10.22,9.87-14.92,13.7-1.55.83-3.1,1.56-4.65,2.29s-3.16,1.32-4.75,2-3.23,1.27-4.87,2c-.4.16-.9.4-1.08.44a3.47,3.47,0,0,0-.41.16l-.34.27-.18.14-.26.24-.5.47-1,1,.53-1.58c0,.81,0,1.64,0,2.48l-1.74-1.87c1.62.31,3.33.55,5.13.75-.66.07-3.5.06-3,.73,2,.84,5.69,1.16,7.87,1.31,6.12-.22-1.33-2.07,1.06-2.66,5.05.26,10,.23,16.74,2.61,2.67,1.52,5.29,3.09,7.85,4.76,3.28-.63,7,.59,11.22,2.67q3.15,1.59,6.66,3.8a82.58,82.58,0,0,1,7.38,5.19,11.56,11.56,0,0,0,2,3.12,24.45,24.45,0,0,1,3.06,5,16.49,16.49,0,0,1,1.34,6.24c0,.52.05,1,.05,1.47s.17.88-.35,1.2a7.9,7.9,0,0,1-1.76,1.37c-.2.23-.37.42-.55.6l-.25.25c0,.06-.1,0-.09.16l0,.33a9.38,9.38,0,0,1,.06,1.91h0a.16.16,0,0,1,0,.07,2.56,2.56,0,0,1-1.35-1.09c-.22-.29-.44-.62-.66-1l-.47-.76a10.41,10.41,0,0,0-.88-1.25,1.8,1.8,0,0,0-.35-.31,9.5,9.5,0,0,0-.82-.71c-1.08-.58-1.33-.83-1.34-1s.26-.17.48-.2.42-.07.36-.23-.38-.43-.92-.85a1,1,0,0,1,.64.17,3.09,3.09,0,0,1,.31.25l.15.08c.19.13.48.46.77.67l.05,0h0a2.06,2.06,0,0,0,.84.25,2.46,2.46,0,0,0,.52-.05l.29-.09.25-.07a3,3,0,0,0,.59-.3c.15,0,.12-.23.15-.38s0-.33,0-.51A9.23,9.23,0,0,0,443,173l-.48.6c-.4-1-.82-2-1.33-3.18a19.15,19.15,0,0,0-2-3.41c-1.64-2.18-3.8-3.9-5.51-4.05L430.94,161a8.34,8.34,0,0,1-1.26-1.08c-.43-.52-.1-.71.43-.83,1-.24,2.9-.17.54-2.21-1.88-.25-6-1.67-9.88-2.49s-7.46-1.22-8-.33c3,.88,5.91,1.85,8.78,3-1.41-.48-.49.32-1.12.27-2.62-2.07-8.68-2.41-13.17-2.53s-7.57-.27-4.61-2.63c1.29-.08,4.44.9,5.54.53-.1-1.49-6.53-2.38-11.26-3.44-5,.38-10.61,1.63-17.71.07l-4.37-1,.06-3.68v-1a3.77,3.77,0,0,1,.31-1.48l1.1-3.3c.76-.27,1,.26,2.44-1l.65-.85.33-.43a4.25,4.25,0,0,1,.43-.31l.88-.62.55-.4c.7-.5,1.37-1,2-1.39,1.27-.84,2.36-1.59,3.39-2.23s2-1.15,2.86-1.65,1.74-1,2.6-1.43a42.52,42.52,0,0,0,12.77-9.73A37.77,37.77,0,0,0,416,106.26l1-1.89.85-2c.63-1.28,1-2.64,1.47-4a52.44,52.44,0,0,0,1.71-8c-.3.4-.49.16-.61-.43a9.3,9.3,0,0,1-.13-1.14c-.07-.44-.12-.93-.19-1.45a17.8,17.8,0,0,0-.78-3.16,10,10,0,0,0-.52-1.33,8.8,8.8,0,0,0-.45-1,11.11,11.11,0,0,0-2.3-4.21,16.85,16.85,0,0,0-5.36-4.32c2.15,1.33,1.17,0,2.82.78-2.11-1.31-3.81-2.25-5.15-3a22.36,22.36,0,0,1-3-2.07,4,4,0,0,1-1.74-2.73c3.75,1,6,1.44,8.42,2.2a15.61,15.61,0,0,1,1.84.7,14.53,14.53,0,0,1,2,1.06A19.71,19.71,0,0,1,420.75,74.6Z" style="fill:#f9f9f9"/><path d="M417.38,179c2.46-2-15.32-4.67-6.48-5.33a31.28,31.28,0,0,0-11.49-2c6.25,2.32-1.65,0,1.56,1.87-5.23-.87-10.39-1.74-15.49-2.54l-7.61-1.14-3.78-.52-.9-.13-.62-.07-1.21-.14-2.13-.23-.26,0c-.07,0-.11.12-.17.18l-.33.4-.66.8c-.16.11-.07.31-.07.48l0,.51a5.7,5.7,0,0,0,.13,1c.14.8.28,1.6.43,2.39q1.34,7.71,2.64,15.28c.14,1.36.27,2.7.41,4-.9.6-1.8,1.19-2.68,1.79l-2.48,1.69-1.83,1.28-2.34,1.71-2.88.2-.72.06h-.18a.59.59,0,0,1-.14-.06l-.28-.14-1.11-.56-1.1-.54-.87-.46c-.58-.31-1.16-.62-1.73-1a40.77,40.77,0,0,1-6.59-4.61,28.38,28.38,0,0,1-5.55-6.47,26.48,26.48,0,0,1-3.34-8.34,17.74,17.74,0,0,1,.07-2.83,7.32,7.32,0,0,1,.3-1.51c.24-.68.58-.75,1-.49.75.52,1.68,2.37,2.4,3.3l-.71-10.86L343,176.9c1,.28.7-4.63,1.22-7.39l-.46-3c1.18.84,1.86,2.6,2.25,4.94a35.82,35.82,0,0,1,.38,3.9c0,.66.07,1.35.1,2.05s.09,1.26.15,1.91a19.71,19.71,0,0,0,.88,3.9,17,17,0,0,0,1.83,3.7,15.61,15.61,0,0,0,5.75,5.28c-2.35-1.56-3.28-2.42-3.73-2.58s-.29.26,0,.84.8,1.34,1,1.76-.06.58-1.19-.06l1.42,1.25c.51.39,1,.8,1.51,1.17a44.39,44.39,0,0,1-6.11-4.36,21.05,21.05,0,0,1-3.51-4.18,18.83,18.83,0,0,1-2.48-6,21.07,21.07,0,0,0,2.42,6.82,23.76,23.76,0,0,0,4.47,5.63,32.14,32.14,0,0,0,5.7,4.21c1,.57,2,1.12,3.17,1.66l.83.39a3.74,3.74,0,0,0,.94,0l1.88-.2,3.58-2.94,3.44-2.87q-2.1-8.79-4.31-17l-.58-2.22c-.21-.81-.43-1.65-.6-2.48-.08-.41-.2-.84-.24-1.24l0-1.2,0-1.21V167c0-.1.1-.17.14-.25l.35-.5,1.44-2,.37-.51c.12-.17.22-.4.43-.34l1.14-.09,2.3-.21a5.32,5.32,0,0,1,1.2,0l1.24.07c-.79.18-2.6.3-.31.92,1.08.16,2.14.28,3.11.35s1.64.11,2.4.11a40.46,40.46,0,0,0,4.17-.21c2.53-.28,4.56-.69,6.24-.75l-3.36.12c4.38,1.81,12.08,1.83,17.58,2.86,5.68,2.47,9.25,4.66,19.37,6.42l-.58.84,7.85,2.61c-2-.38-1.31.23-.94.53-.66.11-1-.19-2.38-.68-.87,1.26,2.7,4.27,6.82,6.48a26,26,0,0,0-3.72-1.17c.86.39,2.26,1,3.78,1.61l4.76,2.06a30.26,30.26,0,0,1,4.86,2.29c.68.52.14.72-2.85.24l-1.82-.54-1.56-.47c-.56-.19-1.09-.37-1.58-.56-1-.37-1.83-.75-2.59-1.12a38.8,38.8,0,0,1-3.79-2.19A25.31,25.31,0,0,0,417.38,179Z" style="fill:#f9f9f9"/><path d="M436.46,165.6c1.16,1.33,1.46,2,1.45,2.21s-.37,0-.83-.31c-1-.63-2.5-1.54-2.29-.68a32.12,32.12,0,0,0-5-3.44c.1-.25.52-.25,1.11-.1a13.56,13.56,0,0,1,2.08.83C434.48,164.8,435.91,165.73,436.46,165.6Z" style="fill:#f9f9f9"/><path d="M335.07,129.53c.87-.71.36-5.81.54-8.7-.79-5.7-1.86-7-1.51-15.32.61,1.43,1.1,1.87,1.51,1.63a1.62,1.62,0,0,0,.56-.82,6.85,6.85,0,0,0,.25-.73,5.19,5.19,0,0,1,.23-.57c0-.12,0-.24.05-.38a4.2,4.2,0,0,0,0-.62c0-.47-.05-1-.07-1.47l-.23-3.2c-.07-1.1-.15-2.2-.2-3.23,0-.56-.05-1.09-.08-1.61s0-1,0-1.44c.24.75.54,1.63.86,2.48s.64,1.74,1,2.71a61,61,0,0,1,2,6.34,29,29,0,0,1-.43,6.21c-.77-.76-1.13,5-1.31,7.92,1.37,4.4,3.84-3.62,4.69,14.36-.37,3.31.43,11.44-1,11-.48,2.31,1.37,4.37.22,7-.18.44-.4.87-.56,1.3l-1.12-11.18a4.56,4.56,0,0,0,.47-2.31c-.95,2.16-2.37-12.1-4-4.75l.35,15.41c-.56,3.77-1.55-1.47-1.86-7C336.25,134.36,336.06,134.8,335.07,129.53Z" style="fill:#f9f9f9"/><polygon points="339.92 167.79 339.58 168.65 338.24 155.16 339.92 167.79" style="fill:#f9f9f9"/><path d="M342.85,80.12A27.11,27.11,0,0,1,339.42,82l-.9.44c-.47.23-.94.47-1.43.74-1,.54-1.92,1.11-2.84,1.72-.66-.34-1.34-.67-2.05-1l3.69-1.56c.6-.25,1.2-.5,1.77-.71l.43-.17.28-.09.5-.14C340.2,80.87,341.51,80.46,342.85,80.12Z" style="fill:#f9f9f9"/><path d="M362.92,189.72l-.33-.2-.14-.09-.06-.05s0,0-.08-.11a19.06,19.06,0,0,1-.68-1.87c-.42-1.34-.79-2.87-1.15-4.37-.71-3-1.38-6-2.34-7.3.41,2.43.65,1.52,1,2.06L359,175.4c-.15-1.43-.38-2.91-.47-4.31.32,1.34.74,2.64,1,3.9l.11.39.08.26.16.53.31,1.06c.38,1.43.71,2.87,1,4.34l.88,4.48.45,2.31.13.59.06.29,0,.12Z" style="fill:#f9f9f9"/><path d="M368.7,70.57c4.45-1.4,7-2.55,9.87-3.6A36.19,36.19,0,0,1,390,64.78c2.42.18-2.77,1.32.7,1.27s4.14-.83,5.77-1.4l-1.38-.45c1.38.42,4.17.73,6.07,1.22s2.89,1.17.87,2.3a46.9,46.9,0,0,0-15.69,3.39c-4.27,1.56-8.07,3-13.25,3.3-.74-.49-1.49-1-2.24-1.42-1.95.71-3.89,1.44-5.81,2.23-.46,0-.45-.59-2.37.22-1.91,1.09-1.08,1,.21.86s3.08-.44,3,.06c-3.66,1.55-7.24,3.26-10.75,5.07-1.38.43.9-1,.44-1A15.4,15.4,0,0,0,352,81.76c-1.06.57-2,1.22-2.91,1.83A13.49,13.49,0,0,1,343,86.24c1-.72,2-1.37,3.08-2.06s2.07-1.35,3.13-2l-5.83,2.37-2.66,1.11-1.49.62-1.55.69-3.14,1.38-.79.35a5,5,0,0,0,.08.75L334,91l.46,3.12c.09.53.17,1.06.25,1.59l.15,1.18c-.19-.9-.58-2.56-.92-3.95s-.7-2.81-1.08-4.19l-.07-.26c0-.08-.09-.2,0-.22l.44-.25.87-.52,1.72-1,3.42-2.07c.32-.19.45-.28.66-.42l.59-.37,1.14-.75c.76-.51,1.52-1,2.26-1.46L346.17,80l2.22-1.36C354.28,75,360.4,71.91,368.7,70.57Z" style="fill:#f9f9f9"/><path d="M531.35,61l7.7,8.94q1.47,20.88-53.64,41.47l.17,2.32,2.32-.17,20.94-3.8q19.41-1.38,29,9.69l.17,2.39q.69,10-19,32-29.41,27-53.9,36.75-14.4-3.79-15.39-17.72,45.74-23.51,53.89-36.82l-.16-2.32L464,141.17q-21.6-5.47-22.43-17.22Q452.75,96.74,531.35,61Z" style="fill:none"/><path d="M544,77.74c.49-1.72-.39.64-1.4,2.24s-1.87,2.61-.52-.58a62.52,62.52,0,0,1-5.31,7.95,41,41,0,0,1-6.95,6.87c-.59-.26-.13-1.31-.52-1.64s-1.56.12-5.53,2.34c-5.21,3-5.3,3.61-5.13,4.34s.51,1.45-4.26,4.1c2.24-1.07,4.47-2.22,6.67-3.43-2.71,2.77-8.22,6-14.51,8.88s-13.34,5.53-19.17,7.92l3.65-5.68,0,.19-.18,2.16-5.68-4.93,1.18.12c.36,0,.9.07.9.14l.12,0c.09,0,.24,0,.35,0H490l2.95,0c2,0,4,0,6.08-.08s4.23-.22,6.48-.5l1.71-.23.87-.13.56-.09.55,0c1.24-.06,2.51-.14,3.83-.19-.34.1-1.29.24-2.06.47s-1.36.52-1,.8c2.28.38,6.24.17,8.63.24,1.64-.13,2.39-.26,2.61-.47s-.1-.48-.56-.78c-.91-.55-2.42-1.11-1.07-1.45a33.15,33.15,0,0,1,9,1.22,22.22,22.22,0,0,1,9.67,5.76c.14.18.27.38.4.57l.19.29.29.38c.4.51.73,1,1,1.51l.93,1.46.22.36a2.32,2.32,0,0,1,0,.45l-.08.91a30.4,30.4,0,0,1-.43,3.33,7.46,7.46,0,0,1-.38,1.39,12.13,12.13,0,0,1-.49,1.28,10.78,10.78,0,0,1-.54,6,26.51,26.51,0,0,1-3.34,6.23c-2.86,4.18-6.71,8.41-10.41,13.62a8.28,8.28,0,0,0-2.77,2.29l-.84.95-.94,1.11-2.17,2.13c-2.77,2.74-5.63,5.41-7.1,5.59-4.49,3.86-3.68-2.62-8.1-.55-3.52,2.19-2.54,1.13-1.54.11s2-2.07-1.54.09c3.25-3,4.47-2.66,6-2.53s3.41.05,7.77-4.17l-.84-.06a24.16,24.16,0,0,1,3-3.06l.87-.74a2.88,2.88,0,0,0,.31-.3l.41-.43,1.68-1.73c2.18-2.31,4.14-4.59,4.52-6.44,4-4.94,4.38-4.64,4.48-3.5s-.29,3,2.14.79c.55-1.91,2.8-6,4.12-10a17.78,17.78,0,0,0,1-5.35c0-1.44-.43-2.28-.91-2.4a22.22,22.22,0,0,1-2.81,8.33c.64-1.39-.27-.53-.14-1.16a8.93,8.93,0,0,0,2.06-5.54,7.39,7.39,0,0,0-.09-1.51,3.36,3.36,0,0,0-.18-.63,1.56,1.56,0,0,0-.2-.41,2.56,2.56,0,0,0-.46-.58,5,5,0,0,0-.73-.21,1,1,0,0,0-.29,0c-.16-.07-.39-.22-.57-.32q-.61-.28-1.11-.57a7.91,7.91,0,0,1-1.55-.91c-.66-.55-.53-1.19,1.2-1.86a4.74,4.74,0,0,1,1.06.51,11.59,11.59,0,0,1,1.27.84l.64.44a5.71,5.71,0,0,0,.54.38,2.23,2.23,0,0,0,.75.23c.23-.27.18-.62-.18-1.13a5.83,5.83,0,0,0-.88-1,9.93,9.93,0,0,0-1.22-1,28.55,28.55,0,0,0-6.71-3.39,43.39,43.39,0,0,0-8.36.62c-1.5.21-3.05.38-4.73.55-.83.06-1.7.15-2.6.18a5.22,5.22,0,0,0-.89.08c-.51.06-1,.12-1.55.16-2.93.16-1.38-1-4.31-.81-3.44.94-6.17,1.55-8.48,2-1.16.2-2.22.34-3.21.46l-1.44.15-.69,0-.37,0-.5.06c-.67,0-.95,0-1.36,0l-1.16-.07-3.5-.19.15-2.71c.05-.77.09-1.54.14-2.34l.14-2.44,1.69-.42a65.35,65.35,0,0,0,14.1-5.09,77.43,77.43,0,0,0,16.61-7,169.31,169.31,0,0,0,15.31-9.52c-1.05.12.26-1.2,1.83-2.89a39,39,0,0,0,4-4.84A11.56,11.56,0,0,0,539,75.13a12.94,12.94,0,0,0,.52-1.79,13.49,13.49,0,0,0,.27-2c0-.34,0-.68,0-1v-.5c0-.16-.19-.26-.27-.4-.43-.5-.87-1-1.31-1.42,1,1.08,1.27,1.24,1.56,1.31s.76-.06.86,1l0-.56,0-.28c0-.09-.11-.14-.15-.21l-.71-.8L538.38,67c-.69-.79-1.24-1.48-1.73-2.13a17.13,17.13,0,0,1-2-3.2,3.9,3.9,0,0,1-.33-3.26A59.69,59.69,0,0,0,541,63.81l.36.27.18.15.3.28,1.22,1.18c.43.41.8.87,1.22,1.34l.63.73c.15.11.09.3.12.46l0,.5a34.62,34.62,0,0,1,0,4.58c-.07.42-.13.87-.2,1.32s-.14.67-.22,1A17.52,17.52,0,0,1,544,77.74Z" style="fill:#f9f9f9"/><path d="M486.57,183.46c.21-1.59-3.57.56-6.72,2s-5.52,2.37-2.18-.95c-1.42.61-2.62,1.19-3.68,1.72s-2,1-2.8,1.48c-1.7.93-2.91,1.83-4.55,2.88l2-.56a4.24,4.24,0,0,1,.82-.18c.25,0,0,.16-.39.4-.71.45-2.11,1.19.16.84-.69.34-1.57.73-2.35,1.1l-1.22.56-.31.14-.15.07-.17,0-.67-.17c-.91-.24-1.8-.44-2.72-.76s-1.46-.51-2.19-.8a20.7,20.7,0,0,1-7.77-5.42,19.15,19.15,0,0,1-2.72-4,17.31,17.31,0,0,1-1-2.38c-.14-.46-.33-.92-.45-1.39l-.33-1.42c-.25-.95-.31-1.9-.48-2.86l-.16-1.45c0-.44-.33-1.09.27-1.19l4.79-2.69,2.35-1.31,1.77-1,3.55-1.92c2.34-1.3,4.68-2.57,7-3.88,4.62-2.6,9.16-5.23,13.56-8,1.82-.87,3.55-1.83,5.23-2.82l2.32-1.45c.56-.34,1.09-.73,1.63-1.1a22.63,22.63,0,0,0,5.13-4.88,5.8,5.8,0,0,0,.63-1.08,3.64,3.64,0,0,0,.35-1,1.09,1.09,0,0,0,0-.24l-.19-.29c-.13-.19-.27-.37-.4-.54l-.11-.12-.26.08-.51.17-1,.33a56,56,0,0,0-6.31,2.48c-1.1-.15-1.62-.7-1.13-1.52a5.68,5.68,0,0,1,1.42-1.4c.67-.5,1.5-1,2.19-1.49l-10.56,1.93c3.82-1.25,7.18-2.43,11.88-3.85.58-.6-.61-.64-2.52-.51l-3.19.26-1.69.12c-.47,0-.85,0-1.23,0l-3.17.85a4.57,4.57,0,0,1,1.78-1.62,9.7,9.7,0,0,1,1.37-.64c.25-.1.51-.2.78-.29s.86-.24,1.32-.35c3.75-.95,8.61-1.78,13.36-2.48l.9-.13a2.25,2.25,0,0,1,.41,0l.23.06.93.22c.63.15,1.26.3,1.91.43,1.29.26,2.62.47,4,.63l.5.06.26,0,.13,0s0,0,.05,0l0,.09.21,1.37.11.68c0,.22.11.46,0,.61l-.36,1c-.48,1.29-1,2.47-1.26,3.54-.21.32-.41.61-.58.9l.69-.93c.81-2.25,1-3.2.94-3.42s-.44.33-1,1a13.49,13.49,0,0,1-1.77,1.92c-.52.39-.8.41-.35-.58a25.07,25.07,0,0,1-1.58,2c-.41.43-.81.87-1.24,1.27a15,15,0,0,0,1-1.22l.79-1.16.84-1.38c.31-.49.57-1.05.9-1.62l.12-.22a.8.8,0,0,0,0-.26l-.1-.55-.19-1.13-.05-.29a2,2,0,0,0-.36.08l-.76.2-1.51.4-3,.78q-3,.76-5.86,1.4c2.76-.45,5.46-.93,8.24-1.45l1-.2c.13-.06.07.1.09.17l0,.26,0,.53.09,1c-.16.29-.38.58-.56.87a16.74,16.74,0,0,1-1.22,1.65c-.41.56-.88,1.05-1.33,1.56a80.35,80.35,0,0,1-10,8.95c-3.87,3-7.8,5.85-11.7,8.56s-7.74,5.32-11.5,7.82L459.58,170l-2.72,1.78c-.51.33-.74.5-1.05.73l-.87.62c.14-.39,1.14-1.32-.45-.85a22,22,0,0,0-1.92,1.08l-.41.27-.19.13c-.06,0-.15.08-.1.18.09.33.17.65.26,1a7.58,7.58,0,0,0,1.53,2.76l1,1a9.41,9.41,0,0,0,1,.92c.69.53,1.31.91,1.84,1.27a9.59,9.59,0,0,1-1-.79,7.66,7.66,0,0,1-1-.92c.38,1.91,2.15,3.9,4.6,5A16,16,0,0,0,462,185l1,.31.5.14.26.06a.65.65,0,0,0,.19,0c.27,0,.59,0,.83.05h.1l.13-.07.24-.15.46-.25h.66l.13,0,.27-.06.55-.13,2.12-.51A38.94,38.94,0,0,0,484.32,177l.2,1c1.28-.69,2.54-1.41,3.79-2.15s2.49-1.49,3.73-2.26c-1.68,1.38-.73,1.19-.24,1.1-.36.58-.83.7-2.18,1.45.34,1.52,5.23.64,9.85-1.51A35.41,35.41,0,0,0,496,177c.92-.46,2.35-1.28,3.92-2.17s3.23-1.88,4.63-2.65c2.8-1.55,4.6-2.17,2.28.6a32.37,32.37,0,0,1-10.34,5.69A37.8,37.8,0,0,0,486.57,183.46Z" style="fill:#f9f9f9"/><path d="M521.16,146.73c-6,5.78.76-2.43-1.22-1.7,1.52-1.9,3-3.81,4.43-5.76.5.24-.31,1.83-1.28,3.48S521,146.14,521.16,146.73Z" style="fill:#f9f9f9"/><path d="M438.73,131.59a4.64,4.64,0,0,0-.41-1.82l-.21-.7-.28-.88c-.16-.64-.3-1.34-.44-2.07s-.19-1.5-.3-2.27c0-.19-.09-.4,0-.58l.23-.53c.16-.36.29-.71.47-1.07.33-.67.66-1.34,1-2,.23-.45.45-.87.67-1.24.73-1.52,1.3-2.78,1.82-4s1.11-2.11,1.74-3.18a19.33,19.33,0,0,1,1-1.63c.41-.54.86-1.1,1.37-1.71s1.1-1.25,1.76-2,1.46-1.37,2.33-2.15c-1.66,3.47.31,2.65,3.3.66l5.18-3.31a53.26,53.26,0,0,1,5.16-2.76c-1.61,1.5-3.79,3.73-6.14,6.22l-1.84,1.83c-.61.64-1.24,1.26-1.89,1.87s-1.33,1.19-2,1.78-1.33,1.17-2,1.7c0-.28-.29-.22-.75.06a9.62,9.62,0,0,0-1.76,1.46c-.66.66-1.39,1.44-2.08,2.21l-.51.57-.44.59-.79,1.07c-.74,2.42.6,2.06,1,3.25a3.09,3.09,0,0,1,.11,1.23,12,12,0,0,1-.21,1.71c0,.09-.06.17,0,.26l.1.29.2.62a13.59,13.59,0,0,0,.6,1.36,13.06,13.06,0,0,0,2.91,3.88,17.45,17.45,0,0,0,5.21,4c1,.6,2,1.07,2.61,1.53s1,.79.7,1.07c2,1.38,4.72.36,6.88,2.18.28.28.61.58,1,.88l-1.26-.22c-.49-.1-1-.18-1.46-.29-1-.23-1.94-.42-2.89-.69a49.58,49.58,0,0,1-5.69-1.83,5.35,5.35,0,0,0-1.88-1.6c.73,1-2.36-.05-4.81-1.37a13.74,13.74,0,0,0-2.77-1.35c-.48-.05-.52.72.84,2.62a31,31,0,0,0,7.7,4.94,55.77,55.77,0,0,0,8.15,3c1.91.88,1.41,1.14-.36,1a30.09,30.09,0,0,1-7.85-2.14,51.71,51.71,0,0,1-7.52-5.35c-.8-.6-1.49-1.22-2.36-1.92l-1.39-1.32A23.32,23.32,0,0,1,438.73,131.59Z" style="fill:#f9f9f9"/><polygon points="480.25 139.81 481.21 140.03 467.1 143.09 480.25 139.81" style="fill:#f9f9f9"/><path d="M472.43,86c-2.15,2-4.54,2.94-6.64,5l-1.35-1.29C467.08,88.36,469.78,87.21,472.43,86Z" style="fill:#f9f9f9"/><path d="M484.22,158.92c-2.37,3.6-11.34,7.88-13.49,10.64,2.35-1.29,1.35-1.18,1.78-1.75l-4.76,2.06C472.72,165.75,478.36,163,484.22,158.92Z" style="fill:#f9f9f9"/><path d="M497.55,71.56c4.23-2.42,6.57-4.19,9.16-6a46.12,46.12,0,0,1,10.81-5.45c2.44-.61-2.34,2.16,1.06,1s3.84-2.15,5.27-3.22l-1.5,0c3-.09,11.25-2.8,8,.86A60.08,60.08,0,0,0,522,63.05c-2.38,1.44-4.4,2.94-6.37,4.32s-3.84,2.7-5.88,3.89a33.53,33.53,0,0,1-6.91,3l-2.59-.84c-1.86,1.18-3.72,2.33-5.56,3.53-.49,0-.56-.47-2.4.74-3.59,2.94,3.39-.84,3.52.18-3.49,2.42-7,4.76-10.39,7.28-1.39.69.81-1.13.32-1.07a17.46,17.46,0,0,0-3.62,2c-1,.75-1.92,1.58-2.8,2.35a15.37,15.37,0,0,1-6.09,3.72c1.94-1.78,4-3.44,6-5.14-8.15,4.83-14.46,8.23-20.12,12,1.92-1.45,3.66-2.91,5.37-4.22s3.25-2.71,4.8-3.94,3-2.53,4.42-3.75L478,83.55C483.63,79,489.38,74.76,497.55,71.56Z" style="fill:#f9f9f9"/><path d="M233.36,73.8l4.56-.32L247.77,82l-9.87,56.1,2.72,6.72q-2.4,23.25-7.5,23.61l-2.48-2.16q.45,20.79-16.94,22-6.81.48-21.64-44.63l-4.56.33q-6.85,58.13-28.12,59.63l-9.2.65q-18-59.71-21.7-111.52l17.75-10.5q9.21-.65,10.17,13.11l2.25-.15L158,118.36l2.27,32.16,4.57-.32q12.44-61.56,16.26-63.46l9.2-.65q19.62,15.85,21.81,46.94l2.32-.16Q226.71,74.28,233.36,73.8Z" style="fill:#ea019c"/><path d="M280.67,70.47l2.86-.21q16.25,6.7,47,59.55,6.72-.48,17.63,47.31l-8.1,6.25-8.51.6q-5.07-.34-18.89-24.39L269.29,169q-7.71,9.72-8.37,25.69l-2.66,3-8.51.6-6.12-5.24-.4-5.72q-1.26-17.87,12.88-60.9Q272.79,71,280.67,70.47Zm5.87,42.39L277,139.26l.2,2.86,2.86-.2q14.7-1,22.7-3.16l-2.39-9.7A53.25,53.25,0,0,0,286.54,112.86Z" style="fill:#ea019c"/><path d="M407.24,61.54q18,6.88,18.88,18.71,1.81,25.66-39,50.31l-2.3,2.65.17,2.47q63.19,9.13,64.7,30.48l.18,2.47-2.3,2.65.17,2.47q-48.54-14.06-76.27-17.15l-2.29,2.73.17,2.47,4.06,22.25-7.16,5.4-2.47.17q-15.54-7.6-16.5-21.29l-1.75-24.89L344.64,96,341.1,81.2A159.21,159.21,0,0,1,407.24,61.54Zm-42.31,38L366,114.49l2.47-.18Q386.79,102.15,394.25,90l-2.48.17Q364.55,94,364.93,99.56Z" style="fill:#ea019c"/><path d="M536.35,52.43l7.7,8.93q1.49,20.88-53.64,41.47l.17,2.32,2.32-.16,20.94-3.81q19.41-1.37,29,9.69l.17,2.4q.69,10-19,32-29.41,27-53.9,36.74-14.4-3.79-15.39-17.71,45.74-23.52,53.89-36.83l-.16-2.32L469,132.55q-21.6-5.48-22.43-17.22Q457.75,88.12,536.35,52.43Z" style="fill:#ea019c"/><path d="M645.72,148.17a26.83,26.83,0,0,1,0,38L597.9,233.93A26.83,26.83,0,0,1,560,196l47.81-47.82A26.84,26.84,0,0,1,645.72,148.17Z" style="fill:url(#i)"/><circle cx="584.3" cy="215.32" r="22.54" style="fill:#220d49"/><circle cx="582.08" cy="213.45" r="20.68" style="fill:#760e57"/><circle cx="580.6" cy="210.19" r="20.68" style="fill:#e72fb7"/><circle cx="571.71" cy="199.41" r="4.41" style="fill:#f2ffff;opacity:0.7000000000000001"/><circle cx="625.71" cy="173.91" r="22.54" style="fill:#220d49"/><circle cx="623.49" cy="172.04" r="20.68" style="fill:#760e57"/><circle cx="622.01" cy="168.78" r="20.68" style="fill:#e72fb7"/><circle cx="613.12" cy="158" r="4.41" style="fill:#f2ffff;opacity:0.7000000000000001"/><circle cx="49.19" cy="184.9" r="49.18" style="fill:url(#j)"/><path d="M89.36,169.32l5.39,17A3.72,3.72,0,0,1,92.33,191l-20.76,6.58A3.57,3.57,0,0,0,69.24,202l6.58,20.77a3.71,3.71,0,0,1-2.42,4.66l-17,5.38a3.71,3.71,0,0,1-4.66-2.42l-6.58-20.76a3.59,3.59,0,0,0-4.49-2.34l-20.77,6.58a3.7,3.7,0,0,1-4.65-2.4l-5.38-17a3.7,3.7,0,0,1,2.41-4.65l20.76-6.58a3.59,3.59,0,0,0,2.34-4.5L28.82,158a3.7,3.7,0,0,1,2.41-4.65l17-5.39a3.71,3.71,0,0,1,4.65,2.42l6.58,20.76a3.59,3.59,0,0,0,4.5,2.33l20.76-6.58A3.7,3.7,0,0,1,89.36,169.32Z" style="fill:#220d49"/><path d="M85.17,168l5.12,16.16a3.53,3.53,0,0,1-2.3,4.42l-19.75,6.26A3.4,3.4,0,0,0,66,199.15l6.26,19.76a3.53,3.53,0,0,1-2.3,4.43l-16.15,5.12a3.53,3.53,0,0,1-4.43-2.3L43.14,206.4a3.41,3.41,0,0,0-4.28-2.21l-19.75,6.25a3.51,3.51,0,0,1-4.42-2.28L9.57,192a3.53,3.53,0,0,1,2.29-4.43l19.75-6.26A3.4,3.4,0,0,0,33.83,177l-6.26-19.75a3.53,3.53,0,0,1,2.3-4.43L46,147.74A3.53,3.53,0,0,1,50.46,150l6.25,19.75A3.41,3.41,0,0,0,61,172l19.75-6.26A3.53,3.53,0,0,1,85.17,168Z" style="fill:#760e57"/><path d="M82.94,164.59l5.12,16.15a3.53,3.53,0,0,1-2.3,4.43L66,191.42a3.41,3.41,0,0,0-2.22,4.28l6.26,19.76a3.53,3.53,0,0,1-2.29,4.43L51.6,225a3.53,3.53,0,0,1-4.43-2.3L40.91,203a3.42,3.42,0,0,0-4.28-2.22L16.89,207a3.53,3.53,0,0,1-4.43-2.29L7.34,188.55a3.53,3.53,0,0,1,2.3-4.43l19.74-6.26a3.4,3.4,0,0,0,2.22-4.28l-6.26-19.75a3.52,3.52,0,0,1,2.3-4.42l16.16-5.12a3.53,3.53,0,0,1,4.43,2.29l6.26,19.75a3.4,3.4,0,0,0,4.27,2.22l19.75-6.26A3.53,3.53,0,0,1,82.94,164.59Z" style="fill:#e72fb7"/><circle cx="28.5" cy="152.51" r="1.96" style="fill:#f2ffff"/><circle cx="10.8" cy="188.12" r="1.86" style="fill:#f2ffff"/><circle cx="48.04" cy="184.35" r="8.52" style="fill:url(#k)"/></g></svg>